<?xml version="1.0" encoding="utf-8" standalone="no"?>
<!DOCTYPE svg PUBLIC "-//W3C//DTD SVG 1.1//EN"
  "http://www.w3.org/Graphics/SVG/1.1/DTD/svg11.dtd">
<svg xmlns:xlink="http://www.w3.org/1999/xlink" width="720pt" height="432pt" viewBox="0 0 720 432" xmlns="http://www.w3.org/2000/svg" version="1.1">
 <metadata>
  <rdf:RDF xmlns:dc="http://purl.org/dc/elements/1.1/" xmlns:cc="http://creativecommons.org/ns#" xmlns:rdf="http://www.w3.org/1999/02/22-rdf-syntax-ns#">
   <cc:Work>
    <dc:type rdf:resource="http://purl.org/dc/dcmitype/StillImage"/>
    <dc:date>2023-12-08T18:54:43.971596</dc:date>
    <dc:format>image/svg+xml</dc:format>
    <dc:creator>
     <cc:Agent>
      <dc:title>Matplotlib v3.7.1, https://matplotlib.org/</dc:title>
     </cc:Agent>
    </dc:creator>
   </cc:Work>
  </rdf:RDF>
 </metadata>
 <defs>
  <style type="text/css">*{stroke-linejoin: round; stroke-linecap: butt}</style>
 </defs>
 <g id="figure_1">
  <g id="patch_1">
   <path d="M 0 432 
L 720 432 
L 720 0 
L 0 0 
z
" style="fill: #ffffff"/>
  </g>
  <g id="axes_1">
   <g id="patch_2">
    <path d="M 90 384.48 
L 648 384.48 
L 648 51.84 
L 90 51.84 
z
" style="fill: #ffffff"/>
   </g>
   <g id="PathCollection_1">
    <defs>
     <path id="m4bc6131f48" d="M 0 3 
C 0.795609 3 1.55874 2.683901 2.12132 2.12132 
C 2.683901 1.55874 3 0.795609 3 0 
C 3 -0.795609 2.683901 -1.55874 2.12132 -2.12132 
C 1.55874 -2.683901 0.795609 -3 0 -3 
C -0.795609 -3 -1.55874 -2.683901 -2.12132 -2.12132 
C -2.683901 -1.55874 -3 -0.795609 -3 0 
C -3 0.795609 -2.683901 1.55874 -2.12132 2.12132 
C -1.55874 2.683901 -0.795609 3 0 3 
z
" style="stroke: #ff0000; stroke-opacity: 0.8"/>
    </defs>
    <g clip-path="url(#pa0fca6e093)">
     <use xlink:href="#m4bc6131f48" x="115.363636" y="66.96" style="fill: #ff0000; fill-opacity: 0.8; stroke: #ff0000; stroke-opacity: 0.8"/>
     <use xlink:href="#m4bc6131f48" x="124.971802" y="101.796923" style="fill: #ff0000; fill-opacity: 0.8; stroke: #ff0000; stroke-opacity: 0.8"/>
     <use xlink:href="#m4bc6131f48" x="139.191888" y="147.799755" style="fill: #ff0000; fill-opacity: 0.8; stroke: #ff0000; stroke-opacity: 0.8"/>
     <use xlink:href="#m4bc6131f48" x="142.650828" y="123.538952" style="fill: #ff0000; fill-opacity: 0.8; stroke: #ff0000; stroke-opacity: 0.8"/>
     <use xlink:href="#m4bc6131f48" x="150.33736" y="104.221566" style="fill: #ff0000; fill-opacity: 0.8; stroke: #ff0000; stroke-opacity: 0.8"/>
     <use xlink:href="#m4bc6131f48" x="157.639566" y="132.665015" style="fill: #ff0000; fill-opacity: 0.8; stroke: #ff0000; stroke-opacity: 0.8"/>
     <use xlink:href="#m4bc6131f48" x="183.005124" y="176.925488" style="fill: #ff0000; fill-opacity: 0.8; stroke: #ff0000; stroke-opacity: 0.8"/>
     <use xlink:href="#m4bc6131f48" x="210.676642" y="147.918441" style="fill: #ff0000; fill-opacity: 0.8; stroke: #ff0000; stroke-opacity: 0.8"/>
     <use xlink:href="#m4bc6131f48" x="207.217702" y="113.915319" style="fill: #ff0000; fill-opacity: 0.8; stroke: #ff0000; stroke-opacity: 0.8"/>
     <use xlink:href="#m4bc6131f48" x="206.449049" y="121.722925" style="fill: #ff0000; fill-opacity: 0.8; stroke: #ff0000; stroke-opacity: 0.8"/>
     <use xlink:href="#m4bc6131f48" x="201.452803" y="161.213963" style="fill: #ff0000; fill-opacity: 0.8; stroke: #ff0000; stroke-opacity: 0.8"/>
     <use xlink:href="#m4bc6131f48" x="195.303577" y="142.270186" style="fill: #ff0000; fill-opacity: 0.8; stroke: #ff0000; stroke-opacity: 0.8"/>
     <use xlink:href="#m4bc6131f48" x="188.385697" y="127.475314" style="fill: #ff0000; fill-opacity: 0.8; stroke: #ff0000; stroke-opacity: 0.8"/>
     <use xlink:href="#m4bc6131f48" x="186.848391" y="156.077466" style="fill: #ff0000; fill-opacity: 0.8; stroke: #ff0000; stroke-opacity: 0.8"/>
     <use xlink:href="#m4bc6131f48" x="190.30733" y="207.791216" style="fill: #ff0000; fill-opacity: 0.8; stroke: #ff0000; stroke-opacity: 0.8"/>
     <use xlink:href="#m4bc6131f48" x="200.68415" y="214.691354" style="fill: #ff0000; fill-opacity: 0.8; stroke: #ff0000; stroke-opacity: 0.8"/>
     <use xlink:href="#m4bc6131f48" x="236.810853" y="250.152991" style="fill: #ff0000; fill-opacity: 0.8; stroke: #ff0000; stroke-opacity: 0.8"/>
     <use xlink:href="#m4bc6131f48" x="275.243517" y="279.414052" style="fill: #ff0000; fill-opacity: 0.8; stroke: #ff0000; stroke-opacity: 0.8"/>
     <use xlink:href="#m4bc6131f48" x="411.295146" y="333.351998" style="fill: #ff0000; fill-opacity: 0.8; stroke: #ff0000; stroke-opacity: 0.8"/>
     <use xlink:href="#m4bc6131f48" x="494.855444" y="338.917582" style="fill: #ff0000; fill-opacity: 0.8; stroke: #ff0000; stroke-opacity: 0.8"/>
     <use xlink:href="#m4bc6131f48" x="527.822982" y="309.467806" style="fill: #ff0000; fill-opacity: 0.8; stroke: #ff0000; stroke-opacity: 0.8"/>
     <use xlink:href="#m4bc6131f48" x="618.60862" y="325.47691" style="fill: #ff0000; fill-opacity: 0.8; stroke: #ff0000; stroke-opacity: 0.8"/>
     <use xlink:href="#m4bc6131f48" x="611.091191" y="365.986097" style="fill: #ff0000; fill-opacity: 0.8; stroke: #ff0000; stroke-opacity: 0.8"/>
     <use xlink:href="#m4bc6131f48" x="622.636364" y="333.651668" style="fill: #ff0000; fill-opacity: 0.8; stroke: #ff0000; stroke-opacity: 0.8"/>
     <use xlink:href="#m4bc6131f48" x="572.696961" y="268.466414" style="fill: #ff0000; fill-opacity: 0.8; stroke: #ff0000; stroke-opacity: 0.8"/>
     <use xlink:href="#m4bc6131f48" x="547.877146" y="265.388682" style="fill: #ff0000; fill-opacity: 0.8; stroke: #ff0000; stroke-opacity: 0.8"/>
     <use xlink:href="#m4bc6131f48" x="571.044356" y="304.087481" style="fill: #ff0000; fill-opacity: 0.8; stroke: #ff0000; stroke-opacity: 0.8"/>
     <use xlink:href="#m4bc6131f48" x="575.694708" y="303.918047" style="fill: #ff0000; fill-opacity: 0.8; stroke: #ff0000; stroke-opacity: 0.8"/>
    </g>
   </g>
   <g id="PolyCollection_1">
    <path d="M 115.363636 108.010065 
L 115.363636 142.982652 
L 120.487603 145.029342 
L 125.61157 147.08341 
L 130.735537 149.143037 
L 135.859504 150.953196 
L 140.983471 152.75724 
L 146.107438 154.606066 
L 151.231405 156.606345 
L 156.355372 158.71156 
L 161.479339 160.674731 
L 166.603306 162.804482 
L 171.727273 164.827926 
L 176.85124 166.867138 
L 181.975207 168.921298 
L 187.099174 171.018661 
L 192.22314 172.962982 
L 197.347107 175.144328 
L 202.471074 177.323356 
L 207.595041 179.164405 
L 212.719008 181.365436 
L 217.842975 183.666057 
L 222.966942 185.848352 
L 228.090909 187.957386 
L 233.214876 190.110788 
L 238.338843 192.343016 
L 243.46281 194.344157 
L 248.586777 196.387912 
L 253.710744 198.494665 
L 258.834711 200.621758 
L 263.958678 202.712152 
L 269.082645 205.112461 
L 274.206612 207.338722 
L 279.330579 209.475162 
L 284.454545 211.620307 
L 289.578512 213.847735 
L 294.702479 216.107863 
L 299.826446 218.210415 
L 304.950413 220.461341 
L 310.07438 222.721693 
L 315.198347 225.049575 
L 320.322314 227.225704 
L 325.446281 229.28223 
L 330.570248 231.587751 
L 335.694215 234.104157 
L 340.818182 236.322389 
L 345.942149 238.355126 
L 351.066116 240.479331 
L 356.190083 242.892978 
L 361.31405 245.314531 
L 366.438017 247.580482 
L 371.561983 249.854481 
L 376.68595 252.234546 
L 381.809917 254.720413 
L 386.933884 257.075198 
L 392.057851 259.3187 
L 397.181818 261.784613 
L 402.305785 264.232534 
L 407.429752 266.618413 
L 412.553719 268.930315 
L 417.677686 271.313719 
L 422.801653 273.891101 
L 427.92562 276.254674 
L 433.049587 278.782307 
L 438.173554 281.169516 
L 443.297521 283.639117 
L 448.421488 286.09929 
L 453.545455 288.547477 
L 458.669421 290.897686 
L 463.793388 293.241187 
L 468.917355 295.70179 
L 474.041322 298.277773 
L 479.165289 300.643471 
L 484.289256 303.119907 
L 489.413223 305.565632 
L 494.53719 307.990992 
L 499.661157 310.386491 
L 504.785124 312.83522 
L 509.909091 315.261462 
L 515.033058 317.686554 
L 520.157025 320.002679 
L 525.280992 322.318803 
L 530.404959 324.634928 
L 535.528926 327.233126 
L 540.652893 329.825534 
L 545.77686 332.395279 
L 550.900826 334.955307 
L 556.024793 337.423381 
L 561.14876 339.857246 
L 566.272727 342.295896 
L 571.396694 344.734546 
L 576.520661 347.167634 
L 581.644628 349.599036 
L 586.768595 352.073139 
L 591.892562 354.645787 
L 597.016529 357.218436 
L 602.140496 359.790661 
L 607.264463 362.355932 
L 612.38843 364.669719 
L 617.512397 367.030961 
L 622.636364 369.36 
L 622.636364 324.10005 
L 622.636364 324.10005 
L 617.512397 322.101546 
L 612.38843 320.054151 
L 607.264463 318.027821 
L 602.140496 316.00684 
L 597.016529 314.192202 
L 591.892562 312.313298 
L 586.768595 310.23313 
L 581.644628 308.256697 
L 576.520661 306.278016 
L 571.396694 304.179108 
L 566.272727 302.124348 
L 561.14876 300.166076 
L 556.024793 298.11999 
L 550.900826 296.067167 
L 545.77686 294.019291 
L 540.652893 292.039291 
L 535.528926 290.147216 
L 530.404959 288.06343 
L 525.280992 285.911809 
L 520.157025 283.973777 
L 515.033058 281.773157 
L 509.909091 279.781586 
L 504.785124 277.551861 
L 499.661157 275.499836 
L 494.53719 273.393172 
L 489.413223 271.192731 
L 484.289256 269.25338 
L 479.165289 267.196685 
L 474.041322 265.074586 
L 468.917355 263.10347 
L 463.793388 261.035446 
L 458.669421 258.926739 
L 453.545455 256.769475 
L 448.421488 254.695503 
L 443.297521 252.678514 
L 438.173554 250.658537 
L 433.049587 248.522 
L 427.92562 246.406846 
L 422.801653 244.294862 
L 417.677686 242.214719 
L 412.553719 240.023976 
L 407.429752 237.887241 
L 402.305785 235.7594 
L 397.181818 233.654092 
L 392.057851 231.543216 
L 386.933884 229.416203 
L 381.809917 227.270098 
L 376.68595 225.087869 
L 371.561983 222.915233 
L 366.438017 220.843269 
L 361.31405 218.556618 
L 356.190083 216.33568 
L 351.066116 214.201667 
L 345.942149 212.024229 
L 340.818182 209.849789 
L 335.694215 207.668122 
L 330.570248 205.533969 
L 325.446281 203.413336 
L 320.322314 201.203481 
L 315.198347 199.005383 
L 310.07438 196.785684 
L 304.950413 194.587945 
L 299.826446 192.340535 
L 294.702479 190.130812 
L 289.578512 187.909995 
L 284.454545 185.653884 
L 279.330579 183.355806 
L 274.206612 181.084337 
L 269.082645 178.871763 
L 263.958678 176.414418 
L 258.834711 174.105143 
L 253.710744 171.853702 
L 248.586777 169.571052 
L 243.46281 167.275387 
L 238.338843 164.88584 
L 233.214876 162.422059 
L 228.090909 159.999522 
L 222.966942 157.676588 
L 217.842975 155.284521 
L 212.719008 152.978446 
L 207.595041 150.704828 
L 202.471074 148.391225 
L 197.347107 146.080863 
L 192.22314 143.613443 
L 187.099174 141.241392 
L 181.975207 138.869341 
L 176.85124 136.497291 
L 171.727273 134.127075 
L 166.603306 131.770781 
L 161.479339 129.34882 
L 156.355372 127.040093 
L 151.231405 124.670814 
L 146.107438 122.310883 
L 140.983471 119.878608 
L 135.859504 117.588177 
L 130.735537 115.221758 
L 125.61157 112.808372 
L 120.487603 110.42537 
L 115.363636 108.010065 
z
" clip-path="url(#pa0fca6e093)" style="fill: #ff0000; fill-opacity: 0.15"/>
   </g>
   <g id="matplotlib.axis_1">
    <g id="xtick_1">
     <g id="line2d_1">
      <defs>
       <path id="m3dcd43f571" d="M 0 0 
L 0 3.5 
" style="stroke: #000000; stroke-width: 0.8"/>
      </defs>
      <g>
       <use xlink:href="#m3dcd43f571" x="135.348621" y="384.48" style="stroke: #000000; stroke-width: 0.8"/>
      </g>
     </g>
     <g id="text_1">
      <!-- 220 -->
      <g transform="translate(125.804871 399.078438) scale(0.1 -0.1)">
       <defs>
        <path id="DejaVuSans-32" d="M 1228 531 
L 3431 531 
L 3431 0 
L 469 0 
L 469 531 
Q 828 903 1448 1529 
Q 2069 2156 2228 2338 
Q 2531 2678 2651 2914 
Q 2772 3150 2772 3378 
Q 2772 3750 2511 3984 
Q 2250 4219 1831 4219 
Q 1534 4219 1204 4116 
Q 875 4013 500 3803 
L 500 4441 
Q 881 4594 1212 4672 
Q 1544 4750 1819 4750 
Q 2544 4750 2975 4387 
Q 3406 4025 3406 3419 
Q 3406 3131 3298 2873 
Q 3191 2616 2906 2266 
Q 2828 2175 2409 1742 
Q 1991 1309 1228 531 
z
" transform="scale(0.015625)"/>
        <path id="DejaVuSans-30" d="M 2034 4250 
Q 1547 4250 1301 3770 
Q 1056 3291 1056 2328 
Q 1056 1369 1301 889 
Q 1547 409 2034 409 
Q 2525 409 2770 889 
Q 3016 1369 3016 2328 
Q 3016 3291 2770 3770 
Q 2525 4250 2034 4250 
z
M 2034 4750 
Q 2819 4750 3233 4129 
Q 3647 3509 3647 2328 
Q 3647 1150 3233 529 
Q 2819 -91 2034 -91 
Q 1250 -91 836 529 
Q 422 1150 422 2328 
Q 422 3509 836 4129 
Q 1250 4750 2034 4750 
z
" transform="scale(0.015625)"/>
       </defs>
       <use xlink:href="#DejaVuSans-32"/>
       <use xlink:href="#DejaVuSans-32" x="63.623047"/>
       <use xlink:href="#DejaVuSans-30" x="127.246094"/>
      </g>
     </g>
    </g>
    <g id="xtick_2">
     <g id="line2d_2">
      <g>
       <use xlink:href="#m3dcd43f571" x="212.213949" y="384.48" style="stroke: #000000; stroke-width: 0.8"/>
      </g>
     </g>
     <g id="text_2">
      <!-- 240 -->
      <g transform="translate(202.670199 399.078438) scale(0.1 -0.1)">
       <defs>
        <path id="DejaVuSans-34" d="M 2419 4116 
L 825 1625 
L 2419 1625 
L 2419 4116 
z
M 2253 4666 
L 3047 4666 
L 3047 1625 
L 3713 1625 
L 3713 1100 
L 3047 1100 
L 3047 0 
L 2419 0 
L 2419 1100 
L 313 1100 
L 313 1709 
L 2253 4666 
z
" transform="scale(0.015625)"/>
       </defs>
       <use xlink:href="#DejaVuSans-32"/>
       <use xlink:href="#DejaVuSans-34" x="63.623047"/>
       <use xlink:href="#DejaVuSans-30" x="127.246094"/>
      </g>
     </g>
    </g>
    <g id="xtick_3">
     <g id="line2d_3">
      <g>
       <use xlink:href="#m3dcd43f571" x="289.079276" y="384.48" style="stroke: #000000; stroke-width: 0.8"/>
      </g>
     </g>
     <g id="text_3">
      <!-- 260 -->
      <g transform="translate(279.535526 399.078438) scale(0.1 -0.1)">
       <defs>
        <path id="DejaVuSans-36" d="M 2113 2584 
Q 1688 2584 1439 2293 
Q 1191 2003 1191 1497 
Q 1191 994 1439 701 
Q 1688 409 2113 409 
Q 2538 409 2786 701 
Q 3034 994 3034 1497 
Q 3034 2003 2786 2293 
Q 2538 2584 2113 2584 
z
M 3366 4563 
L 3366 3988 
Q 3128 4100 2886 4159 
Q 2644 4219 2406 4219 
Q 1781 4219 1451 3797 
Q 1122 3375 1075 2522 
Q 1259 2794 1537 2939 
Q 1816 3084 2150 3084 
Q 2853 3084 3261 2657 
Q 3669 2231 3669 1497 
Q 3669 778 3244 343 
Q 2819 -91 2113 -91 
Q 1303 -91 875 529 
Q 447 1150 447 2328 
Q 447 3434 972 4092 
Q 1497 4750 2381 4750 
Q 2619 4750 2861 4703 
Q 3103 4656 3366 4563 
z
" transform="scale(0.015625)"/>
       </defs>
       <use xlink:href="#DejaVuSans-32"/>
       <use xlink:href="#DejaVuSans-36" x="63.623047"/>
       <use xlink:href="#DejaVuSans-30" x="127.246094"/>
      </g>
     </g>
    </g>
    <g id="xtick_4">
     <g id="line2d_4">
      <g>
       <use xlink:href="#m3dcd43f571" x="365.944603" y="384.48" style="stroke: #000000; stroke-width: 0.8"/>
      </g>
     </g>
     <g id="text_4">
      <!-- 280 -->
      <g transform="translate(356.400853 399.078438) scale(0.1 -0.1)">
       <defs>
        <path id="DejaVuSans-38" d="M 2034 2216 
Q 1584 2216 1326 1975 
Q 1069 1734 1069 1313 
Q 1069 891 1326 650 
Q 1584 409 2034 409 
Q 2484 409 2743 651 
Q 3003 894 3003 1313 
Q 3003 1734 2745 1975 
Q 2488 2216 2034 2216 
z
M 1403 2484 
Q 997 2584 770 2862 
Q 544 3141 544 3541 
Q 544 4100 942 4425 
Q 1341 4750 2034 4750 
Q 2731 4750 3128 4425 
Q 3525 4100 3525 3541 
Q 3525 3141 3298 2862 
Q 3072 2584 2669 2484 
Q 3125 2378 3379 2068 
Q 3634 1759 3634 1313 
Q 3634 634 3220 271 
Q 2806 -91 2034 -91 
Q 1263 -91 848 271 
Q 434 634 434 1313 
Q 434 1759 690 2068 
Q 947 2378 1403 2484 
z
M 1172 3481 
Q 1172 3119 1398 2916 
Q 1625 2713 2034 2713 
Q 2441 2713 2670 2916 
Q 2900 3119 2900 3481 
Q 2900 3844 2670 4047 
Q 2441 4250 2034 4250 
Q 1625 4250 1398 4047 
Q 1172 3844 1172 3481 
z
" transform="scale(0.015625)"/>
       </defs>
       <use xlink:href="#DejaVuSans-32"/>
       <use xlink:href="#DejaVuSans-38" x="63.623047"/>
       <use xlink:href="#DejaVuSans-30" x="127.246094"/>
      </g>
     </g>
    </g>
    <g id="xtick_5">
     <g id="line2d_5">
      <g>
       <use xlink:href="#m3dcd43f571" x="442.809931" y="384.48" style="stroke: #000000; stroke-width: 0.8"/>
      </g>
     </g>
     <g id="text_5">
      <!-- 300 -->
      <g transform="translate(433.266181 399.078438) scale(0.1 -0.1)">
       <defs>
        <path id="DejaVuSans-33" d="M 2597 2516 
Q 3050 2419 3304 2112 
Q 3559 1806 3559 1356 
Q 3559 666 3084 287 
Q 2609 -91 1734 -91 
Q 1441 -91 1130 -33 
Q 819 25 488 141 
L 488 750 
Q 750 597 1062 519 
Q 1375 441 1716 441 
Q 2309 441 2620 675 
Q 2931 909 2931 1356 
Q 2931 1769 2642 2001 
Q 2353 2234 1838 2234 
L 1294 2234 
L 1294 2753 
L 1863 2753 
Q 2328 2753 2575 2939 
Q 2822 3125 2822 3475 
Q 2822 3834 2567 4026 
Q 2313 4219 1838 4219 
Q 1578 4219 1281 4162 
Q 984 4106 628 3988 
L 628 4550 
Q 988 4650 1302 4700 
Q 1616 4750 1894 4750 
Q 2613 4750 3031 4423 
Q 3450 4097 3450 3541 
Q 3450 3153 3228 2886 
Q 3006 2619 2597 2516 
z
" transform="scale(0.015625)"/>
       </defs>
       <use xlink:href="#DejaVuSans-33"/>
       <use xlink:href="#DejaVuSans-30" x="63.623047"/>
       <use xlink:href="#DejaVuSans-30" x="127.246094"/>
      </g>
     </g>
    </g>
    <g id="xtick_6">
     <g id="line2d_6">
      <g>
       <use xlink:href="#m3dcd43f571" x="519.675258" y="384.48" style="stroke: #000000; stroke-width: 0.8"/>
      </g>
     </g>
     <g id="text_6">
      <!-- 320 -->
      <g transform="translate(510.131508 399.078438) scale(0.1 -0.1)">
       <use xlink:href="#DejaVuSans-33"/>
       <use xlink:href="#DejaVuSans-32" x="63.623047"/>
       <use xlink:href="#DejaVuSans-30" x="127.246094"/>
      </g>
     </g>
    </g>
    <g id="xtick_7">
     <g id="line2d_7">
      <g>
       <use xlink:href="#m3dcd43f571" x="596.540585" y="384.48" style="stroke: #000000; stroke-width: 0.8"/>
      </g>
     </g>
     <g id="text_7">
      <!-- 340 -->
      <g transform="translate(586.996835 399.078438) scale(0.1 -0.1)">
       <use xlink:href="#DejaVuSans-33"/>
       <use xlink:href="#DejaVuSans-34" x="63.623047"/>
       <use xlink:href="#DejaVuSans-30" x="127.246094"/>
      </g>
     </g>
    </g>
    <g id="text_8">
     <!-- Producer Price Index of Construction Materials -->
     <g transform="translate(253.364844 412.756563) scale(0.1 -0.1)">
      <defs>
       <path id="DejaVuSans-50" d="M 1259 4147 
L 1259 2394 
L 2053 2394 
Q 2494 2394 2734 2622 
Q 2975 2850 2975 3272 
Q 2975 3691 2734 3919 
Q 2494 4147 2053 4147 
L 1259 4147 
z
M 628 4666 
L 2053 4666 
Q 2838 4666 3239 4311 
Q 3641 3956 3641 3272 
Q 3641 2581 3239 2228 
Q 2838 1875 2053 1875 
L 1259 1875 
L 1259 0 
L 628 0 
L 628 4666 
z
" transform="scale(0.015625)"/>
       <path id="DejaVuSans-72" d="M 2631 2963 
Q 2534 3019 2420 3045 
Q 2306 3072 2169 3072 
Q 1681 3072 1420 2755 
Q 1159 2438 1159 1844 
L 1159 0 
L 581 0 
L 581 3500 
L 1159 3500 
L 1159 2956 
Q 1341 3275 1631 3429 
Q 1922 3584 2338 3584 
Q 2397 3584 2469 3576 
Q 2541 3569 2628 3553 
L 2631 2963 
z
" transform="scale(0.015625)"/>
       <path id="DejaVuSans-6f" d="M 1959 3097 
Q 1497 3097 1228 2736 
Q 959 2375 959 1747 
Q 959 1119 1226 758 
Q 1494 397 1959 397 
Q 2419 397 2687 759 
Q 2956 1122 2956 1747 
Q 2956 2369 2687 2733 
Q 2419 3097 1959 3097 
z
M 1959 3584 
Q 2709 3584 3137 3096 
Q 3566 2609 3566 1747 
Q 3566 888 3137 398 
Q 2709 -91 1959 -91 
Q 1206 -91 779 398 
Q 353 888 353 1747 
Q 353 2609 779 3096 
Q 1206 3584 1959 3584 
z
" transform="scale(0.015625)"/>
       <path id="DejaVuSans-64" d="M 2906 2969 
L 2906 4863 
L 3481 4863 
L 3481 0 
L 2906 0 
L 2906 525 
Q 2725 213 2448 61 
Q 2172 -91 1784 -91 
Q 1150 -91 751 415 
Q 353 922 353 1747 
Q 353 2572 751 3078 
Q 1150 3584 1784 3584 
Q 2172 3584 2448 3432 
Q 2725 3281 2906 2969 
z
M 947 1747 
Q 947 1113 1208 752 
Q 1469 391 1925 391 
Q 2381 391 2643 752 
Q 2906 1113 2906 1747 
Q 2906 2381 2643 2742 
Q 2381 3103 1925 3103 
Q 1469 3103 1208 2742 
Q 947 2381 947 1747 
z
" transform="scale(0.015625)"/>
       <path id="DejaVuSans-75" d="M 544 1381 
L 544 3500 
L 1119 3500 
L 1119 1403 
Q 1119 906 1312 657 
Q 1506 409 1894 409 
Q 2359 409 2629 706 
Q 2900 1003 2900 1516 
L 2900 3500 
L 3475 3500 
L 3475 0 
L 2900 0 
L 2900 538 
Q 2691 219 2414 64 
Q 2138 -91 1772 -91 
Q 1169 -91 856 284 
Q 544 659 544 1381 
z
M 1991 3584 
L 1991 3584 
z
" transform="scale(0.015625)"/>
       <path id="DejaVuSans-63" d="M 3122 3366 
L 3122 2828 
Q 2878 2963 2633 3030 
Q 2388 3097 2138 3097 
Q 1578 3097 1268 2742 
Q 959 2388 959 1747 
Q 959 1106 1268 751 
Q 1578 397 2138 397 
Q 2388 397 2633 464 
Q 2878 531 3122 666 
L 3122 134 
Q 2881 22 2623 -34 
Q 2366 -91 2075 -91 
Q 1284 -91 818 406 
Q 353 903 353 1747 
Q 353 2603 823 3093 
Q 1294 3584 2113 3584 
Q 2378 3584 2631 3529 
Q 2884 3475 3122 3366 
z
" transform="scale(0.015625)"/>
       <path id="DejaVuSans-65" d="M 3597 1894 
L 3597 1613 
L 953 1613 
Q 991 1019 1311 708 
Q 1631 397 2203 397 
Q 2534 397 2845 478 
Q 3156 559 3463 722 
L 3463 178 
Q 3153 47 2828 -22 
Q 2503 -91 2169 -91 
Q 1331 -91 842 396 
Q 353 884 353 1716 
Q 353 2575 817 3079 
Q 1281 3584 2069 3584 
Q 2775 3584 3186 3129 
Q 3597 2675 3597 1894 
z
M 3022 2063 
Q 3016 2534 2758 2815 
Q 2500 3097 2075 3097 
Q 1594 3097 1305 2825 
Q 1016 2553 972 2059 
L 3022 2063 
z
" transform="scale(0.015625)"/>
       <path id="DejaVuSans-20" transform="scale(0.015625)"/>
       <path id="DejaVuSans-69" d="M 603 3500 
L 1178 3500 
L 1178 0 
L 603 0 
L 603 3500 
z
M 603 4863 
L 1178 4863 
L 1178 4134 
L 603 4134 
L 603 4863 
z
" transform="scale(0.015625)"/>
       <path id="DejaVuSans-49" d="M 628 4666 
L 1259 4666 
L 1259 0 
L 628 0 
L 628 4666 
z
" transform="scale(0.015625)"/>
       <path id="DejaVuSans-6e" d="M 3513 2113 
L 3513 0 
L 2938 0 
L 2938 2094 
Q 2938 2591 2744 2837 
Q 2550 3084 2163 3084 
Q 1697 3084 1428 2787 
Q 1159 2491 1159 1978 
L 1159 0 
L 581 0 
L 581 3500 
L 1159 3500 
L 1159 2956 
Q 1366 3272 1645 3428 
Q 1925 3584 2291 3584 
Q 2894 3584 3203 3211 
Q 3513 2838 3513 2113 
z
" transform="scale(0.015625)"/>
       <path id="DejaVuSans-78" d="M 3513 3500 
L 2247 1797 
L 3578 0 
L 2900 0 
L 1881 1375 
L 863 0 
L 184 0 
L 1544 1831 
L 300 3500 
L 978 3500 
L 1906 2253 
L 2834 3500 
L 3513 3500 
z
" transform="scale(0.015625)"/>
       <path id="DejaVuSans-66" d="M 2375 4863 
L 2375 4384 
L 1825 4384 
Q 1516 4384 1395 4259 
Q 1275 4134 1275 3809 
L 1275 3500 
L 2222 3500 
L 2222 3053 
L 1275 3053 
L 1275 0 
L 697 0 
L 697 3053 
L 147 3053 
L 147 3500 
L 697 3500 
L 697 3744 
Q 697 4328 969 4595 
Q 1241 4863 1831 4863 
L 2375 4863 
z
" transform="scale(0.015625)"/>
       <path id="DejaVuSans-43" d="M 4122 4306 
L 4122 3641 
Q 3803 3938 3442 4084 
Q 3081 4231 2675 4231 
Q 1875 4231 1450 3742 
Q 1025 3253 1025 2328 
Q 1025 1406 1450 917 
Q 1875 428 2675 428 
Q 3081 428 3442 575 
Q 3803 722 4122 1019 
L 4122 359 
Q 3791 134 3420 21 
Q 3050 -91 2638 -91 
Q 1578 -91 968 557 
Q 359 1206 359 2328 
Q 359 3453 968 4101 
Q 1578 4750 2638 4750 
Q 3056 4750 3426 4639 
Q 3797 4528 4122 4306 
z
" transform="scale(0.015625)"/>
       <path id="DejaVuSans-73" d="M 2834 3397 
L 2834 2853 
Q 2591 2978 2328 3040 
Q 2066 3103 1784 3103 
Q 1356 3103 1142 2972 
Q 928 2841 928 2578 
Q 928 2378 1081 2264 
Q 1234 2150 1697 2047 
L 1894 2003 
Q 2506 1872 2764 1633 
Q 3022 1394 3022 966 
Q 3022 478 2636 193 
Q 2250 -91 1575 -91 
Q 1294 -91 989 -36 
Q 684 19 347 128 
L 347 722 
Q 666 556 975 473 
Q 1284 391 1588 391 
Q 1994 391 2212 530 
Q 2431 669 2431 922 
Q 2431 1156 2273 1281 
Q 2116 1406 1581 1522 
L 1381 1569 
Q 847 1681 609 1914 
Q 372 2147 372 2553 
Q 372 3047 722 3315 
Q 1072 3584 1716 3584 
Q 2034 3584 2315 3537 
Q 2597 3491 2834 3397 
z
" transform="scale(0.015625)"/>
       <path id="DejaVuSans-74" d="M 1172 4494 
L 1172 3500 
L 2356 3500 
L 2356 3053 
L 1172 3053 
L 1172 1153 
Q 1172 725 1289 603 
Q 1406 481 1766 481 
L 2356 481 
L 2356 0 
L 1766 0 
Q 1100 0 847 248 
Q 594 497 594 1153 
L 594 3053 
L 172 3053 
L 172 3500 
L 594 3500 
L 594 4494 
L 1172 4494 
z
" transform="scale(0.015625)"/>
       <path id="DejaVuSans-4d" d="M 628 4666 
L 1569 4666 
L 2759 1491 
L 3956 4666 
L 4897 4666 
L 4897 0 
L 4281 0 
L 4281 4097 
L 3078 897 
L 2444 897 
L 1241 4097 
L 1241 0 
L 628 0 
L 628 4666 
z
" transform="scale(0.015625)"/>
       <path id="DejaVuSans-61" d="M 2194 1759 
Q 1497 1759 1228 1600 
Q 959 1441 959 1056 
Q 959 750 1161 570 
Q 1363 391 1709 391 
Q 2188 391 2477 730 
Q 2766 1069 2766 1631 
L 2766 1759 
L 2194 1759 
z
M 3341 1997 
L 3341 0 
L 2766 0 
L 2766 531 
Q 2569 213 2275 61 
Q 1981 -91 1556 -91 
Q 1019 -91 701 211 
Q 384 513 384 1019 
Q 384 1609 779 1909 
Q 1175 2209 1959 2209 
L 2766 2209 
L 2766 2266 
Q 2766 2663 2505 2880 
Q 2244 3097 1772 3097 
Q 1472 3097 1187 3025 
Q 903 2953 641 2809 
L 641 3341 
Q 956 3463 1253 3523 
Q 1550 3584 1831 3584 
Q 2591 3584 2966 3190 
Q 3341 2797 3341 1997 
z
" transform="scale(0.015625)"/>
       <path id="DejaVuSans-6c" d="M 603 4863 
L 1178 4863 
L 1178 0 
L 603 0 
L 603 4863 
z
" transform="scale(0.015625)"/>
      </defs>
      <use xlink:href="#DejaVuSans-50"/>
      <use xlink:href="#DejaVuSans-72" x="58.552734"/>
      <use xlink:href="#DejaVuSans-6f" x="97.416016"/>
      <use xlink:href="#DejaVuSans-64" x="158.597656"/>
      <use xlink:href="#DejaVuSans-75" x="222.074219"/>
      <use xlink:href="#DejaVuSans-63" x="285.453125"/>
      <use xlink:href="#DejaVuSans-65" x="340.433594"/>
      <use xlink:href="#DejaVuSans-72" x="401.957031"/>
      <use xlink:href="#DejaVuSans-20" x="443.070312"/>
      <use xlink:href="#DejaVuSans-50" x="474.857422"/>
      <use xlink:href="#DejaVuSans-72" x="533.410156"/>
      <use xlink:href="#DejaVuSans-69" x="574.523438"/>
      <use xlink:href="#DejaVuSans-63" x="602.306641"/>
      <use xlink:href="#DejaVuSans-65" x="657.287109"/>
      <use xlink:href="#DejaVuSans-20" x="718.810547"/>
      <use xlink:href="#DejaVuSans-49" x="750.597656"/>
      <use xlink:href="#DejaVuSans-6e" x="780.089844"/>
      <use xlink:href="#DejaVuSans-64" x="843.46875"/>
      <use xlink:href="#DejaVuSans-65" x="906.945312"/>
      <use xlink:href="#DejaVuSans-78" x="966.71875"/>
      <use xlink:href="#DejaVuSans-20" x="1025.898438"/>
      <use xlink:href="#DejaVuSans-6f" x="1057.685547"/>
      <use xlink:href="#DejaVuSans-66" x="1118.867188"/>
      <use xlink:href="#DejaVuSans-20" x="1154.072266"/>
      <use xlink:href="#DejaVuSans-43" x="1185.859375"/>
      <use xlink:href="#DejaVuSans-6f" x="1255.683594"/>
      <use xlink:href="#DejaVuSans-6e" x="1316.865234"/>
      <use xlink:href="#DejaVuSans-73" x="1380.244141"/>
      <use xlink:href="#DejaVuSans-74" x="1432.34375"/>
      <use xlink:href="#DejaVuSans-72" x="1471.552734"/>
      <use xlink:href="#DejaVuSans-75" x="1512.666016"/>
      <use xlink:href="#DejaVuSans-63" x="1576.044922"/>
      <use xlink:href="#DejaVuSans-74" x="1631.025391"/>
      <use xlink:href="#DejaVuSans-69" x="1670.234375"/>
      <use xlink:href="#DejaVuSans-6f" x="1698.017578"/>
      <use xlink:href="#DejaVuSans-6e" x="1759.199219"/>
      <use xlink:href="#DejaVuSans-20" x="1822.578125"/>
      <use xlink:href="#DejaVuSans-4d" x="1854.365234"/>
      <use xlink:href="#DejaVuSans-61" x="1940.644531"/>
      <use xlink:href="#DejaVuSans-74" x="2001.923828"/>
      <use xlink:href="#DejaVuSans-65" x="2041.132812"/>
      <use xlink:href="#DejaVuSans-72" x="2102.65625"/>
      <use xlink:href="#DejaVuSans-69" x="2143.769531"/>
      <use xlink:href="#DejaVuSans-61" x="2171.552734"/>
      <use xlink:href="#DejaVuSans-6c" x="2232.832031"/>
      <use xlink:href="#DejaVuSans-73" x="2260.615234"/>
     </g>
    </g>
   </g>
   <g id="matplotlib.axis_2">
    <g id="ytick_1">
     <g id="line2d_8">
      <defs>
       <path id="mce82561d92" d="M 0 0 
L -3.5 0 
" style="stroke: #000000; stroke-width: 0.8"/>
      </defs>
      <g>
       <use xlink:href="#mce82561d92" x="90" y="354.743519" style="stroke: #000000; stroke-width: 0.8"/>
      </g>
     </g>
     <g id="text_9">
      <!-- 400,000 -->
      <g transform="translate(41.646875 358.542737) scale(0.1 -0.1)">
       <defs>
        <path id="DejaVuSans-2c" d="M 750 794 
L 1409 794 
L 1409 256 
L 897 -744 
L 494 -744 
L 750 256 
L 750 794 
z
" transform="scale(0.015625)"/>
       </defs>
       <use xlink:href="#DejaVuSans-34"/>
       <use xlink:href="#DejaVuSans-30" x="63.623047"/>
       <use xlink:href="#DejaVuSans-30" x="127.246094"/>
       <use xlink:href="#DejaVuSans-2c" x="190.869141"/>
       <use xlink:href="#DejaVuSans-30" x="222.65625"/>
       <use xlink:href="#DejaVuSans-30" x="286.279297"/>
       <use xlink:href="#DejaVuSans-30" x="349.902344"/>
      </g>
     </g>
    </g>
    <g id="ytick_2">
     <g id="line2d_9">
      <g>
       <use xlink:href="#mce82561d92" x="90" y="300.175402" style="stroke: #000000; stroke-width: 0.8"/>
      </g>
     </g>
     <g id="text_10">
      <!-- 600,000 -->
      <g transform="translate(41.646875 303.97462) scale(0.1 -0.1)">
       <use xlink:href="#DejaVuSans-36"/>
       <use xlink:href="#DejaVuSans-30" x="63.623047"/>
       <use xlink:href="#DejaVuSans-30" x="127.246094"/>
       <use xlink:href="#DejaVuSans-2c" x="190.869141"/>
       <use xlink:href="#DejaVuSans-30" x="222.65625"/>
       <use xlink:href="#DejaVuSans-30" x="286.279297"/>
       <use xlink:href="#DejaVuSans-30" x="349.902344"/>
      </g>
     </g>
    </g>
    <g id="ytick_3">
     <g id="line2d_10">
      <g>
       <use xlink:href="#mce82561d92" x="90" y="245.607285" style="stroke: #000000; stroke-width: 0.8"/>
      </g>
     </g>
     <g id="text_11">
      <!-- 800,000 -->
      <g transform="translate(41.646875 249.406503) scale(0.1 -0.1)">
       <use xlink:href="#DejaVuSans-38"/>
       <use xlink:href="#DejaVuSans-30" x="63.623047"/>
       <use xlink:href="#DejaVuSans-30" x="127.246094"/>
       <use xlink:href="#DejaVuSans-2c" x="190.869141"/>
       <use xlink:href="#DejaVuSans-30" x="222.65625"/>
       <use xlink:href="#DejaVuSans-30" x="286.279297"/>
       <use xlink:href="#DejaVuSans-30" x="349.902344"/>
      </g>
     </g>
    </g>
    <g id="ytick_4">
     <g id="line2d_11">
      <g>
       <use xlink:href="#mce82561d92" x="90" y="191.039167" style="stroke: #000000; stroke-width: 0.8"/>
      </g>
     </g>
     <g id="text_12">
      <!-- 1,000,000 -->
      <g transform="translate(32.10625 194.838386) scale(0.1 -0.1)">
       <defs>
        <path id="DejaVuSans-31" d="M 794 531 
L 1825 531 
L 1825 4091 
L 703 3866 
L 703 4441 
L 1819 4666 
L 2450 4666 
L 2450 531 
L 3481 531 
L 3481 0 
L 794 0 
L 794 531 
z
" transform="scale(0.015625)"/>
       </defs>
       <use xlink:href="#DejaVuSans-31"/>
       <use xlink:href="#DejaVuSans-2c" x="63.623047"/>
       <use xlink:href="#DejaVuSans-30" x="95.410156"/>
       <use xlink:href="#DejaVuSans-30" x="159.033203"/>
       <use xlink:href="#DejaVuSans-30" x="222.65625"/>
       <use xlink:href="#DejaVuSans-2c" x="286.279297"/>
       <use xlink:href="#DejaVuSans-30" x="318.066406"/>
       <use xlink:href="#DejaVuSans-30" x="381.689453"/>
       <use xlink:href="#DejaVuSans-30" x="445.3125"/>
      </g>
     </g>
    </g>
    <g id="ytick_5">
     <g id="line2d_12">
      <g>
       <use xlink:href="#mce82561d92" x="90" y="136.47105" style="stroke: #000000; stroke-width: 0.8"/>
      </g>
     </g>
     <g id="text_13">
      <!-- 1,200,000 -->
      <g transform="translate(32.10625 140.270269) scale(0.1 -0.1)">
       <use xlink:href="#DejaVuSans-31"/>
       <use xlink:href="#DejaVuSans-2c" x="63.623047"/>
       <use xlink:href="#DejaVuSans-32" x="95.410156"/>
       <use xlink:href="#DejaVuSans-30" x="159.033203"/>
       <use xlink:href="#DejaVuSans-30" x="222.65625"/>
       <use xlink:href="#DejaVuSans-2c" x="286.279297"/>
       <use xlink:href="#DejaVuSans-30" x="318.066406"/>
       <use xlink:href="#DejaVuSans-30" x="381.689453"/>
       <use xlink:href="#DejaVuSans-30" x="445.3125"/>
      </g>
     </g>
    </g>
    <g id="ytick_6">
     <g id="line2d_13">
      <g>
       <use xlink:href="#mce82561d92" x="90" y="81.902933" style="stroke: #000000; stroke-width: 0.8"/>
      </g>
     </g>
     <g id="text_14">
      <!-- 1,400,000 -->
      <g transform="translate(32.10625 85.702152) scale(0.1 -0.1)">
       <use xlink:href="#DejaVuSans-31"/>
       <use xlink:href="#DejaVuSans-2c" x="63.623047"/>
       <use xlink:href="#DejaVuSans-34" x="95.410156"/>
       <use xlink:href="#DejaVuSans-30" x="159.033203"/>
       <use xlink:href="#DejaVuSans-30" x="222.65625"/>
       <use xlink:href="#DejaVuSans-2c" x="286.279297"/>
       <use xlink:href="#DejaVuSans-30" x="318.066406"/>
       <use xlink:href="#DejaVuSans-30" x="381.689453"/>
       <use xlink:href="#DejaVuSans-30" x="445.3125"/>
      </g>
     </g>
    </g>
    <g id="text_15">
     <!-- Housing Supply -->
     <g transform="translate(26.026562 257.113906) rotate(-90) scale(0.1 -0.1)">
      <defs>
       <path id="DejaVuSans-48" d="M 628 4666 
L 1259 4666 
L 1259 2753 
L 3553 2753 
L 3553 4666 
L 4184 4666 
L 4184 0 
L 3553 0 
L 3553 2222 
L 1259 2222 
L 1259 0 
L 628 0 
L 628 4666 
z
" transform="scale(0.015625)"/>
       <path id="DejaVuSans-67" d="M 2906 1791 
Q 2906 2416 2648 2759 
Q 2391 3103 1925 3103 
Q 1463 3103 1205 2759 
Q 947 2416 947 1791 
Q 947 1169 1205 825 
Q 1463 481 1925 481 
Q 2391 481 2648 825 
Q 2906 1169 2906 1791 
z
M 3481 434 
Q 3481 -459 3084 -895 
Q 2688 -1331 1869 -1331 
Q 1566 -1331 1297 -1286 
Q 1028 -1241 775 -1147 
L 775 -588 
Q 1028 -725 1275 -790 
Q 1522 -856 1778 -856 
Q 2344 -856 2625 -561 
Q 2906 -266 2906 331 
L 2906 616 
Q 2728 306 2450 153 
Q 2172 0 1784 0 
Q 1141 0 747 490 
Q 353 981 353 1791 
Q 353 2603 747 3093 
Q 1141 3584 1784 3584 
Q 2172 3584 2450 3431 
Q 2728 3278 2906 2969 
L 2906 3500 
L 3481 3500 
L 3481 434 
z
" transform="scale(0.015625)"/>
       <path id="DejaVuSans-53" d="M 3425 4513 
L 3425 3897 
Q 3066 4069 2747 4153 
Q 2428 4238 2131 4238 
Q 1616 4238 1336 4038 
Q 1056 3838 1056 3469 
Q 1056 3159 1242 3001 
Q 1428 2844 1947 2747 
L 2328 2669 
Q 3034 2534 3370 2195 
Q 3706 1856 3706 1288 
Q 3706 609 3251 259 
Q 2797 -91 1919 -91 
Q 1588 -91 1214 -16 
Q 841 59 441 206 
L 441 856 
Q 825 641 1194 531 
Q 1563 422 1919 422 
Q 2459 422 2753 634 
Q 3047 847 3047 1241 
Q 3047 1584 2836 1778 
Q 2625 1972 2144 2069 
L 1759 2144 
Q 1053 2284 737 2584 
Q 422 2884 422 3419 
Q 422 4038 858 4394 
Q 1294 4750 2059 4750 
Q 2388 4750 2728 4690 
Q 3069 4631 3425 4513 
z
" transform="scale(0.015625)"/>
       <path id="DejaVuSans-70" d="M 1159 525 
L 1159 -1331 
L 581 -1331 
L 581 3500 
L 1159 3500 
L 1159 2969 
Q 1341 3281 1617 3432 
Q 1894 3584 2278 3584 
Q 2916 3584 3314 3078 
Q 3713 2572 3713 1747 
Q 3713 922 3314 415 
Q 2916 -91 2278 -91 
Q 1894 -91 1617 61 
Q 1341 213 1159 525 
z
M 3116 1747 
Q 3116 2381 2855 2742 
Q 2594 3103 2138 3103 
Q 1681 3103 1420 2742 
Q 1159 2381 1159 1747 
Q 1159 1113 1420 752 
Q 1681 391 2138 391 
Q 2594 391 2855 752 
Q 3116 1113 3116 1747 
z
" transform="scale(0.015625)"/>
       <path id="DejaVuSans-79" d="M 2059 -325 
Q 1816 -950 1584 -1140 
Q 1353 -1331 966 -1331 
L 506 -1331 
L 506 -850 
L 844 -850 
Q 1081 -850 1212 -737 
Q 1344 -625 1503 -206 
L 1606 56 
L 191 3500 
L 800 3500 
L 1894 763 
L 2988 3500 
L 3597 3500 
L 2059 -325 
z
" transform="scale(0.015625)"/>
      </defs>
      <use xlink:href="#DejaVuSans-48"/>
      <use xlink:href="#DejaVuSans-6f" x="75.195312"/>
      <use xlink:href="#DejaVuSans-75" x="136.376953"/>
      <use xlink:href="#DejaVuSans-73" x="199.755859"/>
      <use xlink:href="#DejaVuSans-69" x="251.855469"/>
      <use xlink:href="#DejaVuSans-6e" x="279.638672"/>
      <use xlink:href="#DejaVuSans-67" x="343.017578"/>
      <use xlink:href="#DejaVuSans-20" x="406.494141"/>
      <use xlink:href="#DejaVuSans-53" x="438.28125"/>
      <use xlink:href="#DejaVuSans-75" x="501.757812"/>
      <use xlink:href="#DejaVuSans-70" x="565.136719"/>
      <use xlink:href="#DejaVuSans-70" x="628.613281"/>
      <use xlink:href="#DejaVuSans-6c" x="692.089844"/>
      <use xlink:href="#DejaVuSans-79" x="719.873047"/>
     </g>
    </g>
   </g>
   <g id="line2d_14">
    <path d="M 115.363636 124.439769 
L 120.487603 126.658965 
L 125.61157 128.878161 
L 130.735537 131.097357 
L 135.859504 133.316554 
L 140.983471 135.53575 
L 146.107438 137.754946 
L 151.231405 139.974142 
L 156.355372 142.193338 
L 161.479339 144.412534 
L 166.603306 146.631731 
L 171.727273 148.850927 
L 176.85124 151.070123 
L 181.975207 153.289319 
L 187.099174 155.508515 
L 192.22314 157.727711 
L 197.347107 159.946908 
L 202.471074 162.166104 
L 207.595041 164.3853 
L 212.719008 166.604496 
L 217.842975 168.823692 
L 222.966942 171.042889 
L 228.090909 173.262085 
L 233.214876 175.481281 
L 238.338843 177.700477 
L 243.46281 179.919673 
L 248.586777 182.138869 
L 253.710744 184.358066 
L 258.834711 186.577262 
L 263.958678 188.796458 
L 269.082645 191.015654 
L 274.206612 193.23485 
L 279.330579 195.454047 
L 284.454545 197.673243 
L 289.578512 199.892439 
L 294.702479 202.111635 
L 299.826446 204.330831 
L 304.950413 206.550027 
L 310.07438 208.769224 
L 315.198347 210.98842 
L 320.322314 213.207616 
L 325.446281 215.426812 
L 330.570248 217.646008 
L 335.694215 219.865204 
L 340.818182 222.084401 
L 345.942149 224.303597 
L 351.066116 226.522793 
L 356.190083 228.741989 
L 361.31405 230.961185 
L 366.438017 233.180382 
L 371.561983 235.399578 
L 376.68595 237.618774 
L 381.809917 239.83797 
L 386.933884 242.057166 
L 392.057851 244.276362 
L 397.181818 246.495559 
L 402.305785 248.714755 
L 407.429752 250.933951 
L 412.553719 253.153147 
L 417.677686 255.372343 
L 422.801653 257.591539 
L 427.92562 259.810736 
L 433.049587 262.029932 
L 438.173554 264.249128 
L 443.297521 266.468324 
L 448.421488 268.68752 
L 453.545455 270.906717 
L 458.669421 273.125913 
L 463.793388 275.345109 
L 468.917355 277.564305 
L 474.041322 279.783501 
L 479.165289 282.002697 
L 484.289256 284.221894 
L 489.413223 286.44109 
L 494.53719 288.660286 
L 499.661157 290.879482 
L 504.785124 293.098678 
L 509.909091 295.317875 
L 515.033058 297.537071 
L 520.157025 299.756267 
L 525.280992 301.975463 
L 530.404959 304.194659 
L 535.528926 306.413855 
L 540.652893 308.633052 
L 545.77686 310.852248 
L 550.900826 313.071444 
L 556.024793 315.29064 
L 561.14876 317.509836 
L 566.272727 319.729032 
L 571.396694 321.948229 
L 576.520661 324.167425 
L 581.644628 326.386621 
L 586.768595 328.605817 
L 591.892562 330.825013 
L 597.016529 333.04421 
L 602.140496 335.263406 
L 607.264463 337.482602 
L 612.38843 339.701798 
L 617.512397 341.920994 
L 622.636364 344.14019 
" clip-path="url(#pa0fca6e093)" style="fill: none; stroke: #ff0000; stroke-width: 2.25; stroke-linecap: square"/>
   </g>
   <g id="patch_3">
    <path d="M 90 384.48 
L 90 51.84 
" style="fill: none; stroke: #000000; stroke-width: 0.8; stroke-linejoin: miter; stroke-linecap: square"/>
   </g>
   <g id="patch_4">
    <path d="M 90 384.48 
L 648 384.48 
" style="fill: none; stroke: #000000; stroke-width: 0.8; stroke-linejoin: miter; stroke-linecap: square"/>
   </g>
   <g id="text_16">
    <!-- Construction Cost and Housing Supply -->
    <g transform="translate(215.27375 45.84) scale(0.16 -0.16)">
     <use xlink:href="#DejaVuSans-43"/>
     <use xlink:href="#DejaVuSans-6f" x="69.824219"/>
     <use xlink:href="#DejaVuSans-6e" x="131.005859"/>
     <use xlink:href="#DejaVuSans-73" x="194.384766"/>
     <use xlink:href="#DejaVuSans-74" x="246.484375"/>
     <use xlink:href="#DejaVuSans-72" x="285.693359"/>
     <use xlink:href="#DejaVuSans-75" x="326.806641"/>
     <use xlink:href="#DejaVuSans-63" x="390.185547"/>
     <use xlink:href="#DejaVuSans-74" x="445.166016"/>
     <use xlink:href="#DejaVuSans-69" x="484.375"/>
     <use xlink:href="#DejaVuSans-6f" x="512.158203"/>
     <use xlink:href="#DejaVuSans-6e" x="573.339844"/>
     <use xlink:href="#DejaVuSans-20" x="636.71875"/>
     <use xlink:href="#DejaVuSans-43" x="668.505859"/>
     <use xlink:href="#DejaVuSans-6f" x="738.330078"/>
     <use xlink:href="#DejaVuSans-73" x="799.511719"/>
     <use xlink:href="#DejaVuSans-74" x="851.611328"/>
     <use xlink:href="#DejaVuSans-20" x="890.820312"/>
     <use xlink:href="#DejaVuSans-61" x="922.607422"/>
     <use xlink:href="#DejaVuSans-6e" x="983.886719"/>
     <use xlink:href="#DejaVuSans-64" x="1047.265625"/>
     <use xlink:href="#DejaVuSans-20" x="1110.742188"/>
     <use xlink:href="#DejaVuSans-48" x="1142.529297"/>
     <use xlink:href="#DejaVuSans-6f" x="1217.724609"/>
     <use xlink:href="#DejaVuSans-75" x="1278.90625"/>
     <use xlink:href="#DejaVuSans-73" x="1342.285156"/>
     <use xlink:href="#DejaVuSans-69" x="1394.384766"/>
     <use xlink:href="#DejaVuSans-6e" x="1422.167969"/>
     <use xlink:href="#DejaVuSans-67" x="1485.546875"/>
     <use xlink:href="#DejaVuSans-20" x="1549.023438"/>
     <use xlink:href="#DejaVuSans-53" x="1580.810547"/>
     <use xlink:href="#DejaVuSans-75" x="1644.287109"/>
     <use xlink:href="#DejaVuSans-70" x="1707.666016"/>
     <use xlink:href="#DejaVuSans-70" x="1771.142578"/>
     <use xlink:href="#DejaVuSans-6c" x="1834.619141"/>
     <use xlink:href="#DejaVuSans-79" x="1862.402344"/>
    </g>
   </g>
  </g>
 </g>
 <defs>
  <clipPath id="pa0fca6e093">
   <rect x="90" y="51.84" width="558" height="332.64"/>
  </clipPath>
 </defs>
</svg>
