<?xml version="1.0" encoding="utf-8" standalone="no"?>
<!DOCTYPE svg PUBLIC "-//W3C//DTD SVG 1.1//EN"
  "http://www.w3.org/Graphics/SVG/1.1/DTD/svg11.dtd">
<svg xmlns:xlink="http://www.w3.org/1999/xlink" width="720pt" height="432pt" viewBox="0 0 720 432" xmlns="http://www.w3.org/2000/svg" version="1.1">
 <metadata>
  <rdf:RDF xmlns:dc="http://purl.org/dc/elements/1.1/" xmlns:cc="http://creativecommons.org/ns#" xmlns:rdf="http://www.w3.org/1999/02/22-rdf-syntax-ns#">
   <cc:Work>
    <dc:type rdf:resource="http://purl.org/dc/dcmitype/StillImage"/>
    <dc:date>2023-12-08T18:54:45.106289</dc:date>
    <dc:format>image/svg+xml</dc:format>
    <dc:creator>
     <cc:Agent>
      <dc:title>Matplotlib v3.7.1, https://matplotlib.org/</dc:title>
     </cc:Agent>
    </dc:creator>
   </cc:Work>
  </rdf:RDF>
 </metadata>
 <defs>
  <style type="text/css">*{stroke-linejoin: round; stroke-linecap: butt}</style>
 </defs>
 <g id="figure_1">
  <g id="patch_1">
   <path d="M 0 432 
L 720 432 
L 720 0 
L 0 0 
z
" style="fill: #ffffff"/>
  </g>
  <g id="axes_1">
   <g id="patch_2">
    <path d="M 90 384.48 
L 648 384.48 
L 648 51.84 
L 90 51.84 
z
" style="fill: #ffffff"/>
   </g>
   <g id="PathCollection_1">
    <defs>
     <path id="m109a4b6751" d="M 0 3 
C 0.795609 3 1.55874 2.683901 2.12132 2.12132 
C 2.683901 1.55874 3 0.795609 3 0 
C 3 -0.795609 2.683901 -1.55874 2.12132 -2.12132 
C 1.55874 -2.683901 0.795609 -3 0 -3 
C -0.795609 -3 -1.55874 -2.683901 -2.12132 -2.12132 
C -2.683901 -1.55874 -3 -0.795609 -3 0 
C -3 0.795609 -2.683901 1.55874 -2.12132 2.12132 
C -1.55874 2.683901 -0.795609 3 0 3 
z
" style="stroke: #800080; stroke-opacity: 0.8"/>
    </defs>
    <g clip-path="url(#pc7bcbd5e98)">
     <use xlink:href="#m109a4b6751" x="115.363636" y="369.36" style="fill: #800080; fill-opacity: 0.8; stroke: #800080; stroke-opacity: 0.8"/>
     <use xlink:href="#m109a4b6751" x="118.735031" y="367.634421" style="fill: #800080; fill-opacity: 0.8; stroke: #800080; stroke-opacity: 0.8"/>
     <use xlink:href="#m109a4b6751" x="118.524319" y="367.427351" style="fill: #800080; fill-opacity: 0.8; stroke: #800080; stroke-opacity: 0.8"/>
     <use xlink:href="#m109a4b6751" x="118.945744" y="368.186606" style="fill: #800080; fill-opacity: 0.8; stroke: #800080; stroke-opacity: 0.8"/>
     <use xlink:href="#m109a4b6751" x="119.788592" y="366.184934" style="fill: #800080; fill-opacity: 0.8; stroke: #800080; stroke-opacity: 0.8"/>
     <use xlink:href="#m109a4b6751" x="119.999304" y="365.149586" style="fill: #800080; fill-opacity: 0.8; stroke: #800080; stroke-opacity: 0.8"/>
     <use xlink:href="#m109a4b6751" x="122.106426" y="365.908841" style="fill: #800080; fill-opacity: 0.8; stroke: #800080; stroke-opacity: 0.8"/>
     <use xlink:href="#m109a4b6751" x="120.631441" y="363.424007" style="fill: #800080; fill-opacity: 0.8; stroke: #800080; stroke-opacity: 0.8"/>
     <use xlink:href="#m109a4b6751" x="118.945744" y="362.595729" style="fill: #800080; fill-opacity: 0.8; stroke: #800080; stroke-opacity: 0.8"/>
     <use xlink:href="#m109a4b6751" x="120.842153" y="359.765779" style="fill: #800080; fill-opacity: 0.8; stroke: #800080; stroke-opacity: 0.8"/>
     <use xlink:href="#m109a4b6751" x="120.631441" y="359.14457" style="fill: #800080; fill-opacity: 0.8; stroke: #800080; stroke-opacity: 0.8"/>
     <use xlink:href="#m109a4b6751" x="120.842153" y="357.764107" style="fill: #800080; fill-opacity: 0.8; stroke: #800080; stroke-opacity: 0.8"/>
     <use xlink:href="#m109a4b6751" x="120.842153" y="355.762435" style="fill: #800080; fill-opacity: 0.8; stroke: #800080; stroke-opacity: 0.8"/>
     <use xlink:href="#m109a4b6751" x="122.317138" y="351.96616" style="fill: #800080; fill-opacity: 0.8; stroke: #800080; stroke-opacity: 0.8"/>
     <use xlink:href="#m109a4b6751" x="124.213548" y="350.171558" style="fill: #800080; fill-opacity: 0.8; stroke: #800080; stroke-opacity: 0.8"/>
     <use xlink:href="#m109a4b6751" x="129.059928" y="346.375283" style="fill: #800080; fill-opacity: 0.8; stroke: #800080; stroke-opacity: 0.8"/>
     <use xlink:href="#m109a4b6751" x="134.117021" y="347.410631" style="fill: #800080; fill-opacity: 0.8; stroke: #800080; stroke-opacity: 0.8"/>
     <use xlink:href="#m109a4b6751" x="136.224143" y="347.410631" style="fill: #800080; fill-opacity: 0.8; stroke: #800080; stroke-opacity: 0.8"/>
     <use xlink:href="#m109a4b6751" x="138.331264" y="343.959472" style="fill: #800080; fill-opacity: 0.8; stroke: #800080; stroke-opacity: 0.8"/>
     <use xlink:href="#m109a4b6751" x="140.859811" y="344.718727" style="fill: #800080; fill-opacity: 0.8; stroke: #800080; stroke-opacity: 0.8"/>
     <use xlink:href="#m109a4b6751" x="143.388357" y="341.888777" style="fill: #800080; fill-opacity: 0.8; stroke: #800080; stroke-opacity: 0.8"/>
     <use xlink:href="#m109a4b6751" x="145.495479" y="341.267568" style="fill: #800080; fill-opacity: 0.8; stroke: #800080; stroke-opacity: 0.8"/>
     <use xlink:href="#m109a4b6751" x="146.54904" y="340.508313" style="fill: #800080; fill-opacity: 0.8; stroke: #800080; stroke-opacity: 0.8"/>
     <use xlink:href="#m109a4b6751" x="148.234737" y="337.195201" style="fill: #800080; fill-opacity: 0.8; stroke: #800080; stroke-opacity: 0.8"/>
     <use xlink:href="#m109a4b6751" x="145.074054" y="337.816409" style="fill: #800080; fill-opacity: 0.8; stroke: #800080; stroke-opacity: 0.8"/>
     <use xlink:href="#m109a4b6751" x="147.181176" y="335.814737" style="fill: #800080; fill-opacity: 0.8; stroke: #800080; stroke-opacity: 0.8"/>
     <use xlink:href="#m109a4b6751" x="146.338327" y="342.579008" style="fill: #800080; fill-opacity: 0.8; stroke: #800080; stroke-opacity: 0.8"/>
     <use xlink:href="#m109a4b6751" x="146.127615" y="339.472966" style="fill: #800080; fill-opacity: 0.8; stroke: #800080; stroke-opacity: 0.8"/>
     <use xlink:href="#m109a4b6751" x="146.970464" y="340.508313" style="fill: #800080; fill-opacity: 0.8; stroke: #800080; stroke-opacity: 0.8"/>
     <use xlink:href="#m109a4b6751" x="147.181176" y="340.577336" style="fill: #800080; fill-opacity: 0.8; stroke: #800080; stroke-opacity: 0.8"/>
     <use xlink:href="#m109a4b6751" x="150.131147" y="340.508313" style="fill: #800080; fill-opacity: 0.8; stroke: #800080; stroke-opacity: 0.8"/>
     <use xlink:href="#m109a4b6751" x="147.391888" y="340.508313" style="fill: #800080; fill-opacity: 0.8; stroke: #800080; stroke-opacity: 0.8"/>
     <use xlink:href="#m109a4b6751" x="148.234737" y="340.853429" style="fill: #800080; fill-opacity: 0.8; stroke: #800080; stroke-opacity: 0.8"/>
     <use xlink:href="#m109a4b6751" x="152.870405" y="340.508313" style="fill: #800080; fill-opacity: 0.8; stroke: #800080; stroke-opacity: 0.8"/>
     <use xlink:href="#m109a4b6751" x="152.027556" y="340.508313" style="fill: #800080; fill-opacity: 0.8; stroke: #800080; stroke-opacity: 0.8"/>
     <use xlink:href="#m109a4b6751" x="152.448981" y="336.366923" style="fill: #800080; fill-opacity: 0.8; stroke: #800080; stroke-opacity: 0.8"/>
     <use xlink:href="#m109a4b6751" x="157.927498" y="337.057154" style="fill: #800080; fill-opacity: 0.8; stroke: #800080; stroke-opacity: 0.8"/>
     <use xlink:href="#m109a4b6751" x="166.988122" y="335.676691" style="fill: #800080; fill-opacity: 0.8; stroke: #800080; stroke-opacity: 0.8"/>
     <use xlink:href="#m109a4b6751" x="162.563166" y="335.676691" style="fill: #800080; fill-opacity: 0.8; stroke: #800080; stroke-opacity: 0.8"/>
     <use xlink:href="#m109a4b6751" x="166.566697" y="335.676691" style="fill: #800080; fill-opacity: 0.8; stroke: #800080; stroke-opacity: 0.8"/>
     <use xlink:href="#m109a4b6751" x="173.309487" y="333.605996" style="fill: #800080; fill-opacity: 0.8; stroke: #800080; stroke-opacity: 0.8"/>
     <use xlink:href="#m109a4b6751" x="172.466638" y="333.605996" style="fill: #800080; fill-opacity: 0.8; stroke: #800080; stroke-opacity: 0.8"/>
     <use xlink:href="#m109a4b6751" x="175.205897" y="333.813065" style="fill: #800080; fill-opacity: 0.8; stroke: #800080; stroke-opacity: 0.8"/>
     <use xlink:href="#m109a4b6751" x="179.209428" y="332.225532" style="fill: #800080; fill-opacity: 0.8; stroke: #800080; stroke-opacity: 0.8"/>
     <use xlink:href="#m109a4b6751" x="183.634384" y="333.605996" style="fill: #800080; fill-opacity: 0.8; stroke: #800080; stroke-opacity: 0.8"/>
     <use xlink:href="#m109a4b6751" x="187.427203" y="330.914092" style="fill: #800080; fill-opacity: 0.8; stroke: #800080; stroke-opacity: 0.8"/>
     <use xlink:href="#m109a4b6751" x="188.270052" y="332.225532" style="fill: #800080; fill-opacity: 0.8; stroke: #800080; stroke-opacity: 0.8"/>
     <use xlink:href="#m109a4b6751" x="187.216491" y="328.084142" style="fill: #800080; fill-opacity: 0.8; stroke: #800080; stroke-opacity: 0.8"/>
     <use xlink:href="#m109a4b6751" x="184.266521" y="328.774373" style="fill: #800080; fill-opacity: 0.8; stroke: #800080; stroke-opacity: 0.8"/>
     <use xlink:href="#m109a4b6751" x="185.320082" y="326.772701" style="fill: #800080; fill-opacity: 0.8; stroke: #800080; stroke-opacity: 0.8"/>
     <use xlink:href="#m109a4b6751" x="188.902189" y="326.703678" style="fill: #800080; fill-opacity: 0.8; stroke: #800080; stroke-opacity: 0.8"/>
     <use xlink:href="#m109a4b6751" x="190.587886" y="323.873728" style="fill: #800080; fill-opacity: 0.8; stroke: #800080; stroke-opacity: 0.8"/>
     <use xlink:href="#m109a4b6751" x="191.430735" y="323.25252" style="fill: #800080; fill-opacity: 0.8; stroke: #800080; stroke-opacity: 0.8"/>
     <use xlink:href="#m109a4b6751" x="194.591418" y="322.700334" style="fill: #800080; fill-opacity: 0.8; stroke: #800080; stroke-opacity: 0.8"/>
     <use xlink:href="#m109a4b6751" x="195.012842" y="323.25252" style="fill: #800080; fill-opacity: 0.8; stroke: #800080; stroke-opacity: 0.8"/>
     <use xlink:href="#m109a4b6751" x="192.273584" y="323.804705" style="fill: #800080; fill-opacity: 0.8; stroke: #800080; stroke-opacity: 0.8"/>
     <use xlink:href="#m109a4b6751" x="191.641447" y="318.282851" style="fill: #800080; fill-opacity: 0.8; stroke: #800080; stroke-opacity: 0.8"/>
     <use xlink:href="#m109a4b6751" x="192.90572" y="320.146477" style="fill: #800080; fill-opacity: 0.8; stroke: #800080; stroke-opacity: 0.8"/>
     <use xlink:href="#m109a4b6751" x="193.116432" y="317.730666" style="fill: #800080; fill-opacity: 0.8; stroke: #800080; stroke-opacity: 0.8"/>
     <use xlink:href="#m109a4b6751" x="190.798598" y="317.730666" style="fill: #800080; fill-opacity: 0.8; stroke: #800080; stroke-opacity: 0.8"/>
     <use xlink:href="#m109a4b6751" x="190.166462" y="314.693646" style="fill: #800080; fill-opacity: 0.8; stroke: #800080; stroke-opacity: 0.8"/>
     <use xlink:href="#m109a4b6751" x="192.484296" y="313.796345" style="fill: #800080; fill-opacity: 0.8; stroke: #800080; stroke-opacity: 0.8"/>
     <use xlink:href="#m109a4b6751" x="199.64851" y="313.520252" style="fill: #800080; fill-opacity: 0.8; stroke: #800080; stroke-opacity: 0.8"/>
     <use xlink:href="#m109a4b6751" x="194.591418" y="309.240815" style="fill: #800080; fill-opacity: 0.8; stroke: #800080; stroke-opacity: 0.8"/>
     <use xlink:href="#m109a4b6751" x="197.752101" y="309.240815" style="fill: #800080; fill-opacity: 0.8; stroke: #800080; stroke-opacity: 0.8"/>
     <use xlink:href="#m109a4b6751" x="200.912783" y="310.690302" style="fill: #800080; fill-opacity: 0.8; stroke: #800080; stroke-opacity: 0.8"/>
     <use xlink:href="#m109a4b6751" x="198.384237" y="306.825004" style="fill: #800080; fill-opacity: 0.8; stroke: #800080; stroke-opacity: 0.8"/>
     <use xlink:href="#m109a4b6751" x="196.066403" y="303.995054" style="fill: #800080; fill-opacity: 0.8; stroke: #800080; stroke-opacity: 0.8"/>
     <use xlink:href="#m109a4b6751" x="193.327145" y="306.134772" style="fill: #800080; fill-opacity: 0.8; stroke: #800080; stroke-opacity: 0.8"/>
     <use xlink:href="#m109a4b6751" x="194.380706" y="299.78464" style="fill: #800080; fill-opacity: 0.8; stroke: #800080; stroke-opacity: 0.8"/>
     <use xlink:href="#m109a4b6751" x="196.277115" y="304.271147" style="fill: #800080; fill-opacity: 0.8; stroke: #800080; stroke-opacity: 0.8"/>
     <use xlink:href="#m109a4b6751" x="193.959281" y="305.237471" style="fill: #800080; fill-opacity: 0.8; stroke: #800080; stroke-opacity: 0.8"/>
     <use xlink:href="#m109a4b6751" x="193.327145" y="293.089392" style="fill: #800080; fill-opacity: 0.8; stroke: #800080; stroke-opacity: 0.8"/>
     <use xlink:href="#m109a4b6751" x="196.487827" y="294.12474" style="fill: #800080; fill-opacity: 0.8; stroke: #800080; stroke-opacity: 0.8"/>
     <use xlink:href="#m109a4b6751" x="199.016374" y="300.405849" style="fill: #800080; fill-opacity: 0.8; stroke: #800080; stroke-opacity: 0.8"/>
     <use xlink:href="#m109a4b6751" x="199.64851" y="292.123068" style="fill: #800080; fill-opacity: 0.8; stroke: #800080; stroke-opacity: 0.8"/>
     <use xlink:href="#m109a4b6751" x="198.384237" y="294.953018" style="fill: #800080; fill-opacity: 0.8; stroke: #800080; stroke-opacity: 0.8"/>
     <use xlink:href="#m109a4b6751" x="201.54492" y="290.949674" style="fill: #800080; fill-opacity: 0.8; stroke: #800080; stroke-opacity: 0.8"/>
     <use xlink:href="#m109a4b6751" x="203.862754" y="290.880651" style="fill: #800080; fill-opacity: 0.8; stroke: #800080; stroke-opacity: 0.8"/>
     <use xlink:href="#m109a4b6751" x="209.341271" y="286.118052" style="fill: #800080; fill-opacity: 0.8; stroke: #800080; stroke-opacity: 0.8"/>
     <use xlink:href="#m109a4b6751" x="210.184119" y="276.523831" style="fill: #800080; fill-opacity: 0.8; stroke: #800080; stroke-opacity: 0.8"/>
     <use xlink:href="#m109a4b6751" x="231.46605" y="273.141695" style="fill: #800080; fill-opacity: 0.8; stroke: #800080; stroke-opacity: 0.8"/>
     <use xlink:href="#m109a4b6751" x="235.891006" y="275.971645" style="fill: #800080; fill-opacity: 0.8; stroke: #800080; stroke-opacity: 0.8"/>
     <use xlink:href="#m109a4b6751" x="243.687357" y="265.411099" style="fill: #800080; fill-opacity: 0.8; stroke: #800080; stroke-opacity: 0.8"/>
     <use xlink:href="#m109a4b6751" x="249.376586" y="262.857242" style="fill: #800080; fill-opacity: 0.8; stroke: #800080; stroke-opacity: 0.8"/>
     <use xlink:href="#m109a4b6751" x="252.326556" y="262.028964" style="fill: #800080; fill-opacity: 0.8; stroke: #800080; stroke-opacity: 0.8"/>
     <use xlink:href="#m109a4b6751" x="246.426615" y="260.165338" style="fill: #800080; fill-opacity: 0.8; stroke: #800080; stroke-opacity: 0.8"/>
     <use xlink:href="#m109a4b6751" x="255.697951" y="255.19567" style="fill: #800080; fill-opacity: 0.8; stroke: #800080; stroke-opacity: 0.8"/>
     <use xlink:href="#m109a4b6751" x="267.497834" y="252.36572" style="fill: #800080; fill-opacity: 0.8; stroke: #800080; stroke-opacity: 0.8"/>
     <use xlink:href="#m109a4b6751" x="271.290653" y="253.332044" style="fill: #800080; fill-opacity: 0.8; stroke: #800080; stroke-opacity: 0.8"/>
     <use xlink:href="#m109a4b6751" x="278.244155" y="260.717524" style="fill: #800080; fill-opacity: 0.8; stroke: #800080; stroke-opacity: 0.8"/>
     <use xlink:href="#m109a4b6751" x="278.244155" y="253.953253" style="fill: #800080; fill-opacity: 0.8; stroke: #800080; stroke-opacity: 0.8"/>
     <use xlink:href="#m109a4b6751" x="275.715609" y="245.670472" style="fill: #800080; fill-opacity: 0.8; stroke: #800080; stroke-opacity: 0.8"/>
     <use xlink:href="#m109a4b6751" x="281.194126" y="256.161994" style="fill: #800080; fill-opacity: 0.8; stroke: #800080; stroke-opacity: 0.8"/>
     <use xlink:href="#m109a4b6751" x="282.247687" y="256.438087" style="fill: #800080; fill-opacity: 0.8; stroke: #800080; stroke-opacity: 0.8"/>
     <use xlink:href="#m109a4b6751" x="279.71914" y="258.784875" style="fill: #800080; fill-opacity: 0.8; stroke: #800080; stroke-opacity: 0.8"/>
     <use xlink:href="#m109a4b6751" x="282.458399" y="261.890918" style="fill: #800080; fill-opacity: 0.8; stroke: #800080; stroke-opacity: 0.8"/>
     <use xlink:href="#m109a4b6751" x="296.365403" y="260.924593" style="fill: #800080; fill-opacity: 0.8; stroke: #800080; stroke-opacity: 0.8"/>
     <use xlink:href="#m109a4b6751" x="322.704426" y="266.998632" style="fill: #800080; fill-opacity: 0.8; stroke: #800080; stroke-opacity: 0.8"/>
     <use xlink:href="#m109a4b6751" x="319.333031" y="269.759559" style="fill: #800080; fill-opacity: 0.8; stroke: #800080; stroke-opacity: 0.8"/>
     <use xlink:href="#m109a4b6751" x="301.422495" y="279.491827" style="fill: #800080; fill-opacity: 0.8; stroke: #800080; stroke-opacity: 0.8"/>
     <use xlink:href="#m109a4b6751" x="290.465462" y="270.86393" style="fill: #800080; fill-opacity: 0.8; stroke: #800080; stroke-opacity: 0.8"/>
     <use xlink:href="#m109a4b6751" x="289.411901" y="275.41946" style="fill: #800080; fill-opacity: 0.8; stroke: #800080; stroke-opacity: 0.8"/>
     <use xlink:href="#m109a4b6751" x="293.836857" y="272.175371" style="fill: #800080; fill-opacity: 0.8; stroke: #800080; stroke-opacity: 0.8"/>
     <use xlink:href="#m109a4b6751" x="295.10113" y="269.483467" style="fill: #800080; fill-opacity: 0.8; stroke: #800080; stroke-opacity: 0.8"/>
     <use xlink:href="#m109a4b6751" x="308.165285" y="271.830255" style="fill: #800080; fill-opacity: 0.8; stroke: #800080; stroke-opacity: 0.8"/>
     <use xlink:href="#m109a4b6751" x="306.268876" y="268.655189" style="fill: #800080; fill-opacity: 0.8; stroke: #800080; stroke-opacity: 0.8"/>
     <use xlink:href="#m109a4b6751" x="302.476056" y="268.517142" style="fill: #800080; fill-opacity: 0.8; stroke: #800080; stroke-opacity: 0.8"/>
     <use xlink:href="#m109a4b6751" x="306.901012" y="266.72254" style="fill: #800080; fill-opacity: 0.8; stroke: #800080; stroke-opacity: 0.8"/>
     <use xlink:href="#m109a4b6751" x="317.858046" y="265.894262" style="fill: #800080; fill-opacity: 0.8; stroke: #800080; stroke-opacity: 0.8"/>
     <use xlink:href="#m109a4b6751" x="321.018728" y="269.069328" style="fill: #800080; fill-opacity: 0.8; stroke: #800080; stroke-opacity: 0.8"/>
     <use xlink:href="#m109a4b6751" x="321.229441" y="270.725884" style="fill: #800080; fill-opacity: 0.8; stroke: #800080; stroke-opacity: 0.8"/>
     <use xlink:href="#m109a4b6751" x="323.757987" y="258.784875" style="fill: #800080; fill-opacity: 0.8; stroke: #800080; stroke-opacity: 0.8"/>
     <use xlink:href="#m109a4b6751" x="328.815079" y="258.577805" style="fill: #800080; fill-opacity: 0.8; stroke: #800080; stroke-opacity: 0.8"/>
     <use xlink:href="#m109a4b6751" x="328.604367" y="251.606465" style="fill: #800080; fill-opacity: 0.8; stroke: #800080; stroke-opacity: 0.8"/>
     <use xlink:href="#m109a4b6751" x="327.129382" y="249.604793" style="fill: #800080; fill-opacity: 0.8; stroke: #800080; stroke-opacity: 0.8"/>
     <use xlink:href="#m109a4b6751" x="333.240035" y="244.98024" style="fill: #800080; fill-opacity: 0.8; stroke: #800080; stroke-opacity: 0.8"/>
     <use xlink:href="#m109a4b6751" x="338.086415" y="238.284992" style="fill: #800080; fill-opacity: 0.8; stroke: #800080; stroke-opacity: 0.8"/>
     <use xlink:href="#m109a4b6751" x="333.029323" y="240.562757" style="fill: #800080; fill-opacity: 0.8; stroke: #800080; stroke-opacity: 0.8"/>
     <use xlink:href="#m109a4b6751" x="335.136445" y="234.488717" style="fill: #800080; fill-opacity: 0.8; stroke: #800080; stroke-opacity: 0.8"/>
     <use xlink:href="#m109a4b6751" x="340.193537" y="233.384347" style="fill: #800080; fill-opacity: 0.8; stroke: #800080; stroke-opacity: 0.8"/>
     <use xlink:href="#m109a4b6751" x="344.197069" y="224.54938" style="fill: #800080; fill-opacity: 0.8; stroke: #800080; stroke-opacity: 0.8"/>
     <use xlink:href="#m109a4b6751" x="346.725615" y="229.381002" style="fill: #800080; fill-opacity: 0.8; stroke: #800080; stroke-opacity: 0.8"/>
     <use xlink:href="#m109a4b6751" x="349.043449" y="217.025854" style="fill: #800080; fill-opacity: 0.8; stroke: #800080; stroke-opacity: 0.8"/>
     <use xlink:href="#m109a4b6751" x="348.832737" y="223.721102" style="fill: #800080; fill-opacity: 0.8; stroke: #800080; stroke-opacity: 0.8"/>
     <use xlink:href="#m109a4b6751" x="346.093478" y="223.790125" style="fill: #800080; fill-opacity: 0.8; stroke: #800080; stroke-opacity: 0.8"/>
     <use xlink:href="#m109a4b6751" x="344.407781" y="219.165573" style="fill: #800080; fill-opacity: 0.8; stroke: #800080; stroke-opacity: 0.8"/>
     <use xlink:href="#m109a4b6751" x="341.668523" y="214.54102" style="fill: #800080; fill-opacity: 0.8; stroke: #800080; stroke-opacity: 0.8"/>
     <use xlink:href="#m109a4b6751" x="339.561401" y="216.404646" style="fill: #800080; fill-opacity: 0.8; stroke: #800080; stroke-opacity: 0.8"/>
     <use xlink:href="#m109a4b6751" x="342.300659" y="212.125209" style="fill: #800080; fill-opacity: 0.8; stroke: #800080; stroke-opacity: 0.8"/>
     <use xlink:href="#m109a4b6751" x="347.779176" y="213.643719" style="fill: #800080; fill-opacity: 0.8; stroke: #800080; stroke-opacity: 0.8"/>
     <use xlink:href="#m109a4b6751" x="346.725615" y="208.743073" style="fill: #800080; fill-opacity: 0.8; stroke: #800080; stroke-opacity: 0.8"/>
     <use xlink:href="#m109a4b6751" x="351.99342" y="207.224563" style="fill: #800080; fill-opacity: 0.8; stroke: #800080; stroke-opacity: 0.8"/>
     <use xlink:href="#m109a4b6751" x="359.78977" y="203.704382" style="fill: #800080; fill-opacity: 0.8; stroke: #800080; stroke-opacity: 0.8"/>
     <use xlink:href="#m109a4b6751" x="361.68618" y="202.116849" style="fill: #800080; fill-opacity: 0.8; stroke: #800080; stroke-opacity: 0.8"/>
     <use xlink:href="#m109a4b6751" x="365.900424" y="190.106816" style="fill: #800080; fill-opacity: 0.8; stroke: #800080; stroke-opacity: 0.8"/>
     <use xlink:href="#m109a4b6751" x="369.903955" y="194.31723" style="fill: #800080; fill-opacity: 0.8; stroke: #800080; stroke-opacity: 0.8"/>
     <use xlink:href="#m109a4b6751" x="383.810959" y="205.498984" style="fill: #800080; fill-opacity: 0.8; stroke: #800080; stroke-opacity: 0.8"/>
     <use xlink:href="#m109a4b6751" x="398.982237" y="194.938438" style="fill: #800080; fill-opacity: 0.8; stroke: #800080; stroke-opacity: 0.8"/>
     <use xlink:href="#m109a4b6751" x="397.085827" y="200.529316" style="fill: #800080; fill-opacity: 0.8; stroke: #800080; stroke-opacity: 0.8"/>
     <use xlink:href="#m109a4b6751" x="396.664403" y="207.293587" style="fill: #800080; fill-opacity: 0.8; stroke: #800080; stroke-opacity: 0.8"/>
     <use xlink:href="#m109a4b6751" x="393.925144" y="200.736385" style="fill: #800080; fill-opacity: 0.8; stroke: #800080; stroke-opacity: 0.8"/>
     <use xlink:href="#m109a4b6751" x="390.553749" y="203.566335" style="fill: #800080; fill-opacity: 0.8; stroke: #800080; stroke-opacity: 0.8"/>
     <use xlink:href="#m109a4b6751" x="386.76093" y="197.561319" style="fill: #800080; fill-opacity: 0.8; stroke: #800080; stroke-opacity: 0.8"/>
     <use xlink:href="#m109a4b6751" x="385.918081" y="196.249879" style="fill: #800080; fill-opacity: 0.8; stroke: #800080; stroke-opacity: 0.8"/>
     <use xlink:href="#m109a4b6751" x="387.814491" y="200.667362" style="fill: #800080; fill-opacity: 0.8; stroke: #800080; stroke-opacity: 0.8"/>
     <use xlink:href="#m109a4b6751" x="393.50372" y="190.382909" style="fill: #800080; fill-opacity: 0.8; stroke: #800080; stroke-opacity: 0.8"/>
     <use xlink:href="#m109a4b6751" x="413.310665" y="175.749996" style="fill: #800080; fill-opacity: 0.8; stroke: #800080; stroke-opacity: 0.8"/>
     <use xlink:href="#m109a4b6751" x="434.381884" y="168.088424" style="fill: #800080; fill-opacity: 0.8; stroke: #800080; stroke-opacity: 0.8"/>
     <use xlink:href="#m109a4b6751" x="508.973997" y="159.253457" style="fill: #800080; fill-opacity: 0.8; stroke: #800080; stroke-opacity: 0.8"/>
     <use xlink:href="#m109a4b6751" x="554.78704" y="139.512829" style="fill: #800080; fill-opacity: 0.8; stroke: #800080; stroke-opacity: 0.8"/>
     <use xlink:href="#m109a4b6751" x="572.861931" y="130.953956" style="fill: #800080; fill-opacity: 0.8; stroke: #800080; stroke-opacity: 0.8"/>
     <use xlink:href="#m109a4b6751" x="622.636364" y="124.396754" style="fill: #800080; fill-opacity: 0.8; stroke: #800080; stroke-opacity: 0.8"/>
    </g>
   </g>
   <g id="PolyCollection_1">
    <path d="M 115.363636 354.023354 
L 115.363636 359.700974 
L 120.487603 356.741591 
L 125.61157 353.812714 
L 130.735537 350.857541 
L 135.859504 347.956172 
L 140.983471 345.05304 
L 146.107438 342.16276 
L 151.231405 339.271531 
L 156.355372 336.346223 
L 161.479339 333.447781 
L 166.603306 330.552654 
L 171.727273 327.652666 
L 176.85124 324.827707 
L 181.975207 321.934734 
L 187.099174 319.074361 
L 192.22314 316.240919 
L 197.347107 313.376146 
L 202.471074 310.547543 
L 207.595041 307.723992 
L 212.719008 304.855504 
L 217.842975 302.037554 
L 222.966942 299.225971 
L 228.090909 296.428125 
L 233.214876 293.604112 
L 238.338843 290.837978 
L 243.46281 288.065621 
L 248.586777 285.305162 
L 253.710744 282.585883 
L 258.834711 279.868773 
L 263.958678 277.169296 
L 269.082645 274.464135 
L 274.206612 271.689153 
L 279.330579 269.004821 
L 284.454545 266.264272 
L 289.578512 263.538217 
L 294.702479 260.806704 
L 299.826446 258.046729 
L 304.950413 255.305134 
L 310.07438 252.604588 
L 315.198347 249.913838 
L 320.322314 247.206054 
L 325.446281 244.507968 
L 330.570248 241.796503 
L 335.694215 239.096179 
L 340.818182 236.407616 
L 345.942149 233.661926 
L 351.066116 230.975471 
L 356.190083 228.291918 
L 361.31405 225.601449 
L 366.438017 222.911561 
L 371.561983 220.200237 
L 376.68595 217.488792 
L 381.809917 214.787128 
L 386.933884 212.077901 
L 392.057851 209.393803 
L 397.181818 206.705457 
L 402.305785 204.023339 
L 407.429752 201.342521 
L 412.553719 198.662809 
L 417.677686 195.983501 
L 422.801653 193.30311 
L 427.92562 190.622519 
L 433.049587 187.946257 
L 438.173554 185.256815 
L 443.297521 182.563326 
L 448.421488 179.872554 
L 453.545455 177.164231 
L 458.669421 174.470918 
L 463.793388 171.784405 
L 468.917355 169.07745 
L 474.041322 166.392887 
L 479.165289 163.708324 
L 484.289256 161.039538 
L 489.413223 158.353143 
L 494.53719 155.666748 
L 499.661157 152.980352 
L 504.785124 150.294447 
L 509.909091 147.608673 
L 515.033058 144.922899 
L 520.157025 142.237126 
L 525.280992 139.550669 
L 530.404959 136.862692 
L 535.528926 134.176841 
L 540.652893 131.490705 
L 545.77686 128.804568 
L 550.900826 126.118432 
L 556.024793 123.432296 
L 561.14876 120.74616 
L 566.272727 118.059718 
L 571.396694 115.373268 
L 576.520661 112.683886 
L 581.644628 110.001531 
L 586.768595 107.325238 
L 591.892562 104.6495 
L 597.016529 101.982996 
L 602.140496 99.318243 
L 607.264463 96.653491 
L 612.38843 93.988738 
L 617.512397 91.318661 
L 622.636364 88.61811 
L 622.636364 66.96 
L 622.636364 66.96 
L 617.512397 69.905525 
L 612.38843 72.859155 
L 607.264463 75.812785 
L 602.140496 78.76656 
L 597.016529 81.72104 
L 591.892562 84.675519 
L 586.768595 87.629998 
L 581.644628 90.584478 
L 576.520661 93.525771 
L 571.396694 96.466469 
L 566.272727 99.409247 
L 561.14876 102.364266 
L 556.024793 105.319285 
L 550.900826 108.253055 
L 545.77686 111.184115 
L 540.652893 114.115175 
L 535.528926 117.059409 
L 530.404959 120.027296 
L 525.280992 122.996372 
L 520.157025 125.965447 
L 515.033058 128.923244 
L 509.909091 131.860843 
L 504.785124 134.826765 
L 499.661157 137.792687 
L 494.53719 140.727472 
L 489.413223 143.653778 
L 484.289256 146.58027 
L 479.165289 149.50791 
L 474.041322 152.44465 
L 468.917355 155.402542 
L 463.793388 158.360433 
L 458.669421 161.319876 
L 453.545455 164.279378 
L 448.421488 167.238881 
L 443.297521 170.189933 
L 438.173554 173.122549 
L 433.049587 176.055165 
L 427.92562 178.992706 
L 422.801653 181.949535 
L 417.677686 184.906364 
L 412.553719 187.850338 
L 407.429752 190.786285 
L 402.305785 193.708385 
L 397.181818 196.656203 
L 392.057851 199.586442 
L 386.933884 202.524854 
L 381.809917 205.458166 
L 376.68595 208.391775 
L 371.561983 211.327275 
L 366.438017 214.263102 
L 361.31405 217.199671 
L 356.190083 220.154324 
L 351.066116 223.123249 
L 345.942149 226.050901 
L 340.818182 228.979 
L 335.694215 231.916806 
L 330.570248 234.851845 
L 325.446281 237.805463 
L 320.322314 240.760684 
L 315.198347 243.654213 
L 310.07438 246.568116 
L 304.950413 249.534255 
L 299.826446 252.434272 
L 294.702479 255.350932 
L 289.578512 258.285337 
L 284.454545 261.216302 
L 279.330579 264.135685 
L 274.206612 267.088332 
L 269.082645 269.985439 
L 263.958678 272.905489 
L 258.834711 275.846194 
L 253.710744 278.74528 
L 248.586777 281.648821 
L 243.46281 284.531485 
L 238.338843 287.448874 
L 233.214876 290.326569 
L 228.090909 293.217886 
L 222.966942 296.085018 
L 217.842975 298.884806 
L 212.719008 301.704094 
L 207.595041 304.518651 
L 202.471074 307.310743 
L 197.347107 310.16171 
L 192.22314 312.946085 
L 187.099174 315.732682 
L 181.975207 318.517235 
L 176.85124 321.258942 
L 171.727273 324.003253 
L 166.603306 326.734951 
L 161.479339 329.522786 
L 156.355372 332.223609 
L 151.231405 334.951236 
L 146.107438 337.698605 
L 140.983471 340.411796 
L 135.859504 343.154545 
L 130.735537 345.888075 
L 125.61157 348.580422 
L 120.487603 351.295875 
L 115.363636 354.023354 
z
" clip-path="url(#pc7bcbd5e98)" style="fill: #800080; fill-opacity: 0.15"/>
   </g>
   <g id="matplotlib.axis_1">
    <g id="xtick_1">
     <g id="line2d_1">
      <defs>
       <path id="m503ff57d64" d="M 0 0 
L 0 3.5 
" style="stroke: #000000; stroke-width: 0.8"/>
      </defs>
      <g>
       <use xlink:href="#m503ff57d64" x="104.828027" y="384.48" style="stroke: #000000; stroke-width: 0.8"/>
      </g>
     </g>
     <g id="text_1">
      <!-- 100 -->
      <g transform="translate(95.284277 399.078438) scale(0.1 -0.1)">
       <defs>
        <path id="DejaVuSans-31" d="M 794 531 
L 1825 531 
L 1825 4091 
L 703 3866 
L 703 4441 
L 1819 4666 
L 2450 4666 
L 2450 531 
L 3481 531 
L 3481 0 
L 794 0 
L 794 531 
z
" transform="scale(0.015625)"/>
        <path id="DejaVuSans-30" d="M 2034 4250 
Q 1547 4250 1301 3770 
Q 1056 3291 1056 2328 
Q 1056 1369 1301 889 
Q 1547 409 2034 409 
Q 2525 409 2770 889 
Q 3016 1369 3016 2328 
Q 3016 3291 2770 3770 
Q 2525 4250 2034 4250 
z
M 2034 4750 
Q 2819 4750 3233 4129 
Q 3647 3509 3647 2328 
Q 3647 1150 3233 529 
Q 2819 -91 2034 -91 
Q 1250 -91 836 529 
Q 422 1150 422 2328 
Q 422 3509 836 4129 
Q 1250 4750 2034 4750 
z
" transform="scale(0.015625)"/>
       </defs>
       <use xlink:href="#DejaVuSans-31"/>
       <use xlink:href="#DejaVuSans-30" x="63.623047"/>
       <use xlink:href="#DejaVuSans-30" x="127.246094"/>
      </g>
     </g>
    </g>
    <g id="xtick_2">
     <g id="line2d_2">
      <g>
       <use xlink:href="#m503ff57d64" x="210.184119" y="384.48" style="stroke: #000000; stroke-width: 0.8"/>
      </g>
     </g>
     <g id="text_2">
      <!-- 150 -->
      <g transform="translate(200.640369 399.078438) scale(0.1 -0.1)">
       <defs>
        <path id="DejaVuSans-35" d="M 691 4666 
L 3169 4666 
L 3169 4134 
L 1269 4134 
L 1269 2991 
Q 1406 3038 1543 3061 
Q 1681 3084 1819 3084 
Q 2600 3084 3056 2656 
Q 3513 2228 3513 1497 
Q 3513 744 3044 326 
Q 2575 -91 1722 -91 
Q 1428 -91 1123 -41 
Q 819 9 494 109 
L 494 744 
Q 775 591 1075 516 
Q 1375 441 1709 441 
Q 2250 441 2565 725 
Q 2881 1009 2881 1497 
Q 2881 1984 2565 2268 
Q 2250 2553 1709 2553 
Q 1456 2553 1204 2497 
Q 953 2441 691 2322 
L 691 4666 
z
" transform="scale(0.015625)"/>
       </defs>
       <use xlink:href="#DejaVuSans-31"/>
       <use xlink:href="#DejaVuSans-35" x="63.623047"/>
       <use xlink:href="#DejaVuSans-30" x="127.246094"/>
      </g>
     </g>
    </g>
    <g id="xtick_3">
     <g id="line2d_3">
      <g>
       <use xlink:href="#m503ff57d64" x="315.540212" y="384.48" style="stroke: #000000; stroke-width: 0.8"/>
      </g>
     </g>
     <g id="text_3">
      <!-- 200 -->
      <g transform="translate(305.996462 399.078438) scale(0.1 -0.1)">
       <defs>
        <path id="DejaVuSans-32" d="M 1228 531 
L 3431 531 
L 3431 0 
L 469 0 
L 469 531 
Q 828 903 1448 1529 
Q 2069 2156 2228 2338 
Q 2531 2678 2651 2914 
Q 2772 3150 2772 3378 
Q 2772 3750 2511 3984 
Q 2250 4219 1831 4219 
Q 1534 4219 1204 4116 
Q 875 4013 500 3803 
L 500 4441 
Q 881 4594 1212 4672 
Q 1544 4750 1819 4750 
Q 2544 4750 2975 4387 
Q 3406 4025 3406 3419 
Q 3406 3131 3298 2873 
Q 3191 2616 2906 2266 
Q 2828 2175 2409 1742 
Q 1991 1309 1228 531 
z
" transform="scale(0.015625)"/>
       </defs>
       <use xlink:href="#DejaVuSans-32"/>
       <use xlink:href="#DejaVuSans-30" x="63.623047"/>
       <use xlink:href="#DejaVuSans-30" x="127.246094"/>
      </g>
     </g>
    </g>
    <g id="xtick_4">
     <g id="line2d_4">
      <g>
       <use xlink:href="#m503ff57d64" x="420.896304" y="384.48" style="stroke: #000000; stroke-width: 0.8"/>
      </g>
     </g>
     <g id="text_4">
      <!-- 250 -->
      <g transform="translate(411.352554 399.078438) scale(0.1 -0.1)">
       <use xlink:href="#DejaVuSans-32"/>
       <use xlink:href="#DejaVuSans-35" x="63.623047"/>
       <use xlink:href="#DejaVuSans-30" x="127.246094"/>
      </g>
     </g>
    </g>
    <g id="xtick_5">
     <g id="line2d_5">
      <g>
       <use xlink:href="#m503ff57d64" x="526.252396" y="384.48" style="stroke: #000000; stroke-width: 0.8"/>
      </g>
     </g>
     <g id="text_5">
      <!-- 300 -->
      <g transform="translate(516.708646 399.078438) scale(0.1 -0.1)">
       <defs>
        <path id="DejaVuSans-33" d="M 2597 2516 
Q 3050 2419 3304 2112 
Q 3559 1806 3559 1356 
Q 3559 666 3084 287 
Q 2609 -91 1734 -91 
Q 1441 -91 1130 -33 
Q 819 25 488 141 
L 488 750 
Q 750 597 1062 519 
Q 1375 441 1716 441 
Q 2309 441 2620 675 
Q 2931 909 2931 1356 
Q 2931 1769 2642 2001 
Q 2353 2234 1838 2234 
L 1294 2234 
L 1294 2753 
L 1863 2753 
Q 2328 2753 2575 2939 
Q 2822 3125 2822 3475 
Q 2822 3834 2567 4026 
Q 2313 4219 1838 4219 
Q 1578 4219 1281 4162 
Q 984 4106 628 3988 
L 628 4550 
Q 988 4650 1302 4700 
Q 1616 4750 1894 4750 
Q 2613 4750 3031 4423 
Q 3450 4097 3450 3541 
Q 3450 3153 3228 2886 
Q 3006 2619 2597 2516 
z
" transform="scale(0.015625)"/>
       </defs>
       <use xlink:href="#DejaVuSans-33"/>
       <use xlink:href="#DejaVuSans-30" x="63.623047"/>
       <use xlink:href="#DejaVuSans-30" x="127.246094"/>
      </g>
     </g>
    </g>
    <g id="xtick_6">
     <g id="line2d_6">
      <g>
       <use xlink:href="#m503ff57d64" x="631.608488" y="384.48" style="stroke: #000000; stroke-width: 0.8"/>
      </g>
     </g>
     <g id="text_6">
      <!-- 350 -->
      <g transform="translate(622.064738 399.078438) scale(0.1 -0.1)">
       <use xlink:href="#DejaVuSans-33"/>
       <use xlink:href="#DejaVuSans-35" x="63.623047"/>
       <use xlink:href="#DejaVuSans-30" x="127.246094"/>
      </g>
     </g>
    </g>
    <g id="text_7">
     <!-- Producer Price Index of Construction Costs -->
     <g transform="translate(262.561719 412.756563) scale(0.1 -0.1)">
      <defs>
       <path id="DejaVuSans-50" d="M 1259 4147 
L 1259 2394 
L 2053 2394 
Q 2494 2394 2734 2622 
Q 2975 2850 2975 3272 
Q 2975 3691 2734 3919 
Q 2494 4147 2053 4147 
L 1259 4147 
z
M 628 4666 
L 2053 4666 
Q 2838 4666 3239 4311 
Q 3641 3956 3641 3272 
Q 3641 2581 3239 2228 
Q 2838 1875 2053 1875 
L 1259 1875 
L 1259 0 
L 628 0 
L 628 4666 
z
" transform="scale(0.015625)"/>
       <path id="DejaVuSans-72" d="M 2631 2963 
Q 2534 3019 2420 3045 
Q 2306 3072 2169 3072 
Q 1681 3072 1420 2755 
Q 1159 2438 1159 1844 
L 1159 0 
L 581 0 
L 581 3500 
L 1159 3500 
L 1159 2956 
Q 1341 3275 1631 3429 
Q 1922 3584 2338 3584 
Q 2397 3584 2469 3576 
Q 2541 3569 2628 3553 
L 2631 2963 
z
" transform="scale(0.015625)"/>
       <path id="DejaVuSans-6f" d="M 1959 3097 
Q 1497 3097 1228 2736 
Q 959 2375 959 1747 
Q 959 1119 1226 758 
Q 1494 397 1959 397 
Q 2419 397 2687 759 
Q 2956 1122 2956 1747 
Q 2956 2369 2687 2733 
Q 2419 3097 1959 3097 
z
M 1959 3584 
Q 2709 3584 3137 3096 
Q 3566 2609 3566 1747 
Q 3566 888 3137 398 
Q 2709 -91 1959 -91 
Q 1206 -91 779 398 
Q 353 888 353 1747 
Q 353 2609 779 3096 
Q 1206 3584 1959 3584 
z
" transform="scale(0.015625)"/>
       <path id="DejaVuSans-64" d="M 2906 2969 
L 2906 4863 
L 3481 4863 
L 3481 0 
L 2906 0 
L 2906 525 
Q 2725 213 2448 61 
Q 2172 -91 1784 -91 
Q 1150 -91 751 415 
Q 353 922 353 1747 
Q 353 2572 751 3078 
Q 1150 3584 1784 3584 
Q 2172 3584 2448 3432 
Q 2725 3281 2906 2969 
z
M 947 1747 
Q 947 1113 1208 752 
Q 1469 391 1925 391 
Q 2381 391 2643 752 
Q 2906 1113 2906 1747 
Q 2906 2381 2643 2742 
Q 2381 3103 1925 3103 
Q 1469 3103 1208 2742 
Q 947 2381 947 1747 
z
" transform="scale(0.015625)"/>
       <path id="DejaVuSans-75" d="M 544 1381 
L 544 3500 
L 1119 3500 
L 1119 1403 
Q 1119 906 1312 657 
Q 1506 409 1894 409 
Q 2359 409 2629 706 
Q 2900 1003 2900 1516 
L 2900 3500 
L 3475 3500 
L 3475 0 
L 2900 0 
L 2900 538 
Q 2691 219 2414 64 
Q 2138 -91 1772 -91 
Q 1169 -91 856 284 
Q 544 659 544 1381 
z
M 1991 3584 
L 1991 3584 
z
" transform="scale(0.015625)"/>
       <path id="DejaVuSans-63" d="M 3122 3366 
L 3122 2828 
Q 2878 2963 2633 3030 
Q 2388 3097 2138 3097 
Q 1578 3097 1268 2742 
Q 959 2388 959 1747 
Q 959 1106 1268 751 
Q 1578 397 2138 397 
Q 2388 397 2633 464 
Q 2878 531 3122 666 
L 3122 134 
Q 2881 22 2623 -34 
Q 2366 -91 2075 -91 
Q 1284 -91 818 406 
Q 353 903 353 1747 
Q 353 2603 823 3093 
Q 1294 3584 2113 3584 
Q 2378 3584 2631 3529 
Q 2884 3475 3122 3366 
z
" transform="scale(0.015625)"/>
       <path id="DejaVuSans-65" d="M 3597 1894 
L 3597 1613 
L 953 1613 
Q 991 1019 1311 708 
Q 1631 397 2203 397 
Q 2534 397 2845 478 
Q 3156 559 3463 722 
L 3463 178 
Q 3153 47 2828 -22 
Q 2503 -91 2169 -91 
Q 1331 -91 842 396 
Q 353 884 353 1716 
Q 353 2575 817 3079 
Q 1281 3584 2069 3584 
Q 2775 3584 3186 3129 
Q 3597 2675 3597 1894 
z
M 3022 2063 
Q 3016 2534 2758 2815 
Q 2500 3097 2075 3097 
Q 1594 3097 1305 2825 
Q 1016 2553 972 2059 
L 3022 2063 
z
" transform="scale(0.015625)"/>
       <path id="DejaVuSans-20" transform="scale(0.015625)"/>
       <path id="DejaVuSans-69" d="M 603 3500 
L 1178 3500 
L 1178 0 
L 603 0 
L 603 3500 
z
M 603 4863 
L 1178 4863 
L 1178 4134 
L 603 4134 
L 603 4863 
z
" transform="scale(0.015625)"/>
       <path id="DejaVuSans-49" d="M 628 4666 
L 1259 4666 
L 1259 0 
L 628 0 
L 628 4666 
z
" transform="scale(0.015625)"/>
       <path id="DejaVuSans-6e" d="M 3513 2113 
L 3513 0 
L 2938 0 
L 2938 2094 
Q 2938 2591 2744 2837 
Q 2550 3084 2163 3084 
Q 1697 3084 1428 2787 
Q 1159 2491 1159 1978 
L 1159 0 
L 581 0 
L 581 3500 
L 1159 3500 
L 1159 2956 
Q 1366 3272 1645 3428 
Q 1925 3584 2291 3584 
Q 2894 3584 3203 3211 
Q 3513 2838 3513 2113 
z
" transform="scale(0.015625)"/>
       <path id="DejaVuSans-78" d="M 3513 3500 
L 2247 1797 
L 3578 0 
L 2900 0 
L 1881 1375 
L 863 0 
L 184 0 
L 1544 1831 
L 300 3500 
L 978 3500 
L 1906 2253 
L 2834 3500 
L 3513 3500 
z
" transform="scale(0.015625)"/>
       <path id="DejaVuSans-66" d="M 2375 4863 
L 2375 4384 
L 1825 4384 
Q 1516 4384 1395 4259 
Q 1275 4134 1275 3809 
L 1275 3500 
L 2222 3500 
L 2222 3053 
L 1275 3053 
L 1275 0 
L 697 0 
L 697 3053 
L 147 3053 
L 147 3500 
L 697 3500 
L 697 3744 
Q 697 4328 969 4595 
Q 1241 4863 1831 4863 
L 2375 4863 
z
" transform="scale(0.015625)"/>
       <path id="DejaVuSans-43" d="M 4122 4306 
L 4122 3641 
Q 3803 3938 3442 4084 
Q 3081 4231 2675 4231 
Q 1875 4231 1450 3742 
Q 1025 3253 1025 2328 
Q 1025 1406 1450 917 
Q 1875 428 2675 428 
Q 3081 428 3442 575 
Q 3803 722 4122 1019 
L 4122 359 
Q 3791 134 3420 21 
Q 3050 -91 2638 -91 
Q 1578 -91 968 557 
Q 359 1206 359 2328 
Q 359 3453 968 4101 
Q 1578 4750 2638 4750 
Q 3056 4750 3426 4639 
Q 3797 4528 4122 4306 
z
" transform="scale(0.015625)"/>
       <path id="DejaVuSans-73" d="M 2834 3397 
L 2834 2853 
Q 2591 2978 2328 3040 
Q 2066 3103 1784 3103 
Q 1356 3103 1142 2972 
Q 928 2841 928 2578 
Q 928 2378 1081 2264 
Q 1234 2150 1697 2047 
L 1894 2003 
Q 2506 1872 2764 1633 
Q 3022 1394 3022 966 
Q 3022 478 2636 193 
Q 2250 -91 1575 -91 
Q 1294 -91 989 -36 
Q 684 19 347 128 
L 347 722 
Q 666 556 975 473 
Q 1284 391 1588 391 
Q 1994 391 2212 530 
Q 2431 669 2431 922 
Q 2431 1156 2273 1281 
Q 2116 1406 1581 1522 
L 1381 1569 
Q 847 1681 609 1914 
Q 372 2147 372 2553 
Q 372 3047 722 3315 
Q 1072 3584 1716 3584 
Q 2034 3584 2315 3537 
Q 2597 3491 2834 3397 
z
" transform="scale(0.015625)"/>
       <path id="DejaVuSans-74" d="M 1172 4494 
L 1172 3500 
L 2356 3500 
L 2356 3053 
L 1172 3053 
L 1172 1153 
Q 1172 725 1289 603 
Q 1406 481 1766 481 
L 2356 481 
L 2356 0 
L 1766 0 
Q 1100 0 847 248 
Q 594 497 594 1153 
L 594 3053 
L 172 3053 
L 172 3500 
L 594 3500 
L 594 4494 
L 1172 4494 
z
" transform="scale(0.015625)"/>
      </defs>
      <use xlink:href="#DejaVuSans-50"/>
      <use xlink:href="#DejaVuSans-72" x="58.552734"/>
      <use xlink:href="#DejaVuSans-6f" x="97.416016"/>
      <use xlink:href="#DejaVuSans-64" x="158.597656"/>
      <use xlink:href="#DejaVuSans-75" x="222.074219"/>
      <use xlink:href="#DejaVuSans-63" x="285.453125"/>
      <use xlink:href="#DejaVuSans-65" x="340.433594"/>
      <use xlink:href="#DejaVuSans-72" x="401.957031"/>
      <use xlink:href="#DejaVuSans-20" x="443.070312"/>
      <use xlink:href="#DejaVuSans-50" x="474.857422"/>
      <use xlink:href="#DejaVuSans-72" x="533.410156"/>
      <use xlink:href="#DejaVuSans-69" x="574.523438"/>
      <use xlink:href="#DejaVuSans-63" x="602.306641"/>
      <use xlink:href="#DejaVuSans-65" x="657.287109"/>
      <use xlink:href="#DejaVuSans-20" x="718.810547"/>
      <use xlink:href="#DejaVuSans-49" x="750.597656"/>
      <use xlink:href="#DejaVuSans-6e" x="780.089844"/>
      <use xlink:href="#DejaVuSans-64" x="843.46875"/>
      <use xlink:href="#DejaVuSans-65" x="906.945312"/>
      <use xlink:href="#DejaVuSans-78" x="966.71875"/>
      <use xlink:href="#DejaVuSans-20" x="1025.898438"/>
      <use xlink:href="#DejaVuSans-6f" x="1057.685547"/>
      <use xlink:href="#DejaVuSans-66" x="1118.867188"/>
      <use xlink:href="#DejaVuSans-20" x="1154.072266"/>
      <use xlink:href="#DejaVuSans-43" x="1185.859375"/>
      <use xlink:href="#DejaVuSans-6f" x="1255.683594"/>
      <use xlink:href="#DejaVuSans-6e" x="1316.865234"/>
      <use xlink:href="#DejaVuSans-73" x="1380.244141"/>
      <use xlink:href="#DejaVuSans-74" x="1432.34375"/>
      <use xlink:href="#DejaVuSans-72" x="1471.552734"/>
      <use xlink:href="#DejaVuSans-75" x="1512.666016"/>
      <use xlink:href="#DejaVuSans-63" x="1576.044922"/>
      <use xlink:href="#DejaVuSans-74" x="1631.025391"/>
      <use xlink:href="#DejaVuSans-69" x="1670.234375"/>
      <use xlink:href="#DejaVuSans-6f" x="1698.017578"/>
      <use xlink:href="#DejaVuSans-6e" x="1759.199219"/>
      <use xlink:href="#DejaVuSans-20" x="1822.578125"/>
      <use xlink:href="#DejaVuSans-43" x="1854.365234"/>
      <use xlink:href="#DejaVuSans-6f" x="1924.189453"/>
      <use xlink:href="#DejaVuSans-73" x="1985.371094"/>
      <use xlink:href="#DejaVuSans-74" x="2037.470703"/>
      <use xlink:href="#DejaVuSans-73" x="2076.679688"/>
     </g>
    </g>
   </g>
   <g id="matplotlib.axis_2">
    <g id="ytick_1">
     <g id="line2d_7">
      <defs>
       <path id="mce85cc93fc" d="M 0 0 
L -3.5 0 
" style="stroke: #000000; stroke-width: 0.8"/>
      </defs>
      <g>
       <use xlink:href="#mce85cc93fc" x="90" y="354.312948" style="stroke: #000000; stroke-width: 0.8"/>
      </g>
     </g>
     <g id="text_8">
      <!-- 100000 -->
      <g transform="translate(44.825 358.112167) scale(0.1 -0.1)">
       <use xlink:href="#DejaVuSans-31"/>
       <use xlink:href="#DejaVuSans-30" x="63.623047"/>
       <use xlink:href="#DejaVuSans-30" x="127.246094"/>
       <use xlink:href="#DejaVuSans-30" x="190.869141"/>
       <use xlink:href="#DejaVuSans-30" x="254.492188"/>
       <use xlink:href="#DejaVuSans-30" x="318.115234"/>
      </g>
     </g>
    </g>
    <g id="ytick_2">
     <g id="line2d_8">
      <g>
       <use xlink:href="#mce85cc93fc" x="90" y="285.289774" style="stroke: #000000; stroke-width: 0.8"/>
      </g>
     </g>
     <g id="text_9">
      <!-- 200000 -->
      <g transform="translate(44.825 289.088992) scale(0.1 -0.1)">
       <use xlink:href="#DejaVuSans-32"/>
       <use xlink:href="#DejaVuSans-30" x="63.623047"/>
       <use xlink:href="#DejaVuSans-30" x="127.246094"/>
       <use xlink:href="#DejaVuSans-30" x="190.869141"/>
       <use xlink:href="#DejaVuSans-30" x="254.492188"/>
       <use xlink:href="#DejaVuSans-30" x="318.115234"/>
      </g>
     </g>
    </g>
    <g id="ytick_3">
     <g id="line2d_9">
      <g>
       <use xlink:href="#mce85cc93fc" x="90" y="216.266599" style="stroke: #000000; stroke-width: 0.8"/>
      </g>
     </g>
     <g id="text_10">
      <!-- 300000 -->
      <g transform="translate(44.825 220.065818) scale(0.1 -0.1)">
       <use xlink:href="#DejaVuSans-33"/>
       <use xlink:href="#DejaVuSans-30" x="63.623047"/>
       <use xlink:href="#DejaVuSans-30" x="127.246094"/>
       <use xlink:href="#DejaVuSans-30" x="190.869141"/>
       <use xlink:href="#DejaVuSans-30" x="254.492188"/>
       <use xlink:href="#DejaVuSans-30" x="318.115234"/>
      </g>
     </g>
    </g>
    <g id="ytick_4">
     <g id="line2d_10">
      <g>
       <use xlink:href="#mce85cc93fc" x="90" y="147.243425" style="stroke: #000000; stroke-width: 0.8"/>
      </g>
     </g>
     <g id="text_11">
      <!-- 400000 -->
      <g transform="translate(44.825 151.042644) scale(0.1 -0.1)">
       <defs>
        <path id="DejaVuSans-34" d="M 2419 4116 
L 825 1625 
L 2419 1625 
L 2419 4116 
z
M 2253 4666 
L 3047 4666 
L 3047 1625 
L 3713 1625 
L 3713 1100 
L 3047 1100 
L 3047 0 
L 2419 0 
L 2419 1100 
L 313 1100 
L 313 1709 
L 2253 4666 
z
" transform="scale(0.015625)"/>
       </defs>
       <use xlink:href="#DejaVuSans-34"/>
       <use xlink:href="#DejaVuSans-30" x="63.623047"/>
       <use xlink:href="#DejaVuSans-30" x="127.246094"/>
       <use xlink:href="#DejaVuSans-30" x="190.869141"/>
       <use xlink:href="#DejaVuSans-30" x="254.492188"/>
       <use xlink:href="#DejaVuSans-30" x="318.115234"/>
      </g>
     </g>
    </g>
    <g id="ytick_5">
     <g id="line2d_11">
      <g>
       <use xlink:href="#mce85cc93fc" x="90" y="78.220251" style="stroke: #000000; stroke-width: 0.8"/>
      </g>
     </g>
     <g id="text_12">
      <!-- 500000 -->
      <g transform="translate(44.825 82.019469) scale(0.1 -0.1)">
       <use xlink:href="#DejaVuSans-35"/>
       <use xlink:href="#DejaVuSans-30" x="63.623047"/>
       <use xlink:href="#DejaVuSans-30" x="127.246094"/>
       <use xlink:href="#DejaVuSans-30" x="190.869141"/>
       <use xlink:href="#DejaVuSans-30" x="254.492188"/>
       <use xlink:href="#DejaVuSans-30" x="318.115234"/>
      </g>
     </g>
    </g>
    <g id="text_13">
     <!-- Price of Houses Sold -->
     <g transform="translate(38.745312 269.015469) rotate(-90) scale(0.1 -0.1)">
      <defs>
       <path id="DejaVuSans-48" d="M 628 4666 
L 1259 4666 
L 1259 2753 
L 3553 2753 
L 3553 4666 
L 4184 4666 
L 4184 0 
L 3553 0 
L 3553 2222 
L 1259 2222 
L 1259 0 
L 628 0 
L 628 4666 
z
" transform="scale(0.015625)"/>
       <path id="DejaVuSans-53" d="M 3425 4513 
L 3425 3897 
Q 3066 4069 2747 4153 
Q 2428 4238 2131 4238 
Q 1616 4238 1336 4038 
Q 1056 3838 1056 3469 
Q 1056 3159 1242 3001 
Q 1428 2844 1947 2747 
L 2328 2669 
Q 3034 2534 3370 2195 
Q 3706 1856 3706 1288 
Q 3706 609 3251 259 
Q 2797 -91 1919 -91 
Q 1588 -91 1214 -16 
Q 841 59 441 206 
L 441 856 
Q 825 641 1194 531 
Q 1563 422 1919 422 
Q 2459 422 2753 634 
Q 3047 847 3047 1241 
Q 3047 1584 2836 1778 
Q 2625 1972 2144 2069 
L 1759 2144 
Q 1053 2284 737 2584 
Q 422 2884 422 3419 
Q 422 4038 858 4394 
Q 1294 4750 2059 4750 
Q 2388 4750 2728 4690 
Q 3069 4631 3425 4513 
z
" transform="scale(0.015625)"/>
       <path id="DejaVuSans-6c" d="M 603 4863 
L 1178 4863 
L 1178 0 
L 603 0 
L 603 4863 
z
" transform="scale(0.015625)"/>
      </defs>
      <use xlink:href="#DejaVuSans-50"/>
      <use xlink:href="#DejaVuSans-72" x="58.552734"/>
      <use xlink:href="#DejaVuSans-69" x="99.666016"/>
      <use xlink:href="#DejaVuSans-63" x="127.449219"/>
      <use xlink:href="#DejaVuSans-65" x="182.429688"/>
      <use xlink:href="#DejaVuSans-20" x="243.953125"/>
      <use xlink:href="#DejaVuSans-6f" x="275.740234"/>
      <use xlink:href="#DejaVuSans-66" x="336.921875"/>
      <use xlink:href="#DejaVuSans-20" x="372.126953"/>
      <use xlink:href="#DejaVuSans-48" x="403.914062"/>
      <use xlink:href="#DejaVuSans-6f" x="479.109375"/>
      <use xlink:href="#DejaVuSans-75" x="540.291016"/>
      <use xlink:href="#DejaVuSans-73" x="603.669922"/>
      <use xlink:href="#DejaVuSans-65" x="655.769531"/>
      <use xlink:href="#DejaVuSans-73" x="717.292969"/>
      <use xlink:href="#DejaVuSans-20" x="769.392578"/>
      <use xlink:href="#DejaVuSans-53" x="801.179688"/>
      <use xlink:href="#DejaVuSans-6f" x="864.65625"/>
      <use xlink:href="#DejaVuSans-6c" x="925.837891"/>
      <use xlink:href="#DejaVuSans-64" x="953.621094"/>
     </g>
    </g>
   </g>
   <g id="line2d_12">
    <path d="M 115.363636 356.716808 
L 120.487603 353.901353 
L 125.61157 351.085899 
L 130.735537 348.270445 
L 135.859504 345.45499 
L 140.983471 342.639536 
L 146.107438 339.824081 
L 151.231405 337.008627 
L 156.355372 334.193172 
L 161.479339 331.377718 
L 166.603306 328.562263 
L 171.727273 325.746809 
L 176.85124 322.931354 
L 181.975207 320.1159 
L 187.099174 317.300445 
L 192.22314 314.484991 
L 197.347107 311.669536 
L 202.471074 308.854082 
L 207.595041 306.038628 
L 212.719008 303.223173 
L 217.842975 300.407719 
L 222.966942 297.592264 
L 228.090909 294.77681 
L 233.214876 291.961355 
L 238.338843 289.145901 
L 243.46281 286.330446 
L 248.586777 283.514992 
L 253.710744 280.699537 
L 258.834711 277.884083 
L 263.958678 275.068628 
L 269.082645 272.253174 
L 274.206612 269.437719 
L 279.330579 266.622265 
L 284.454545 263.80681 
L 289.578512 260.991356 
L 294.702479 258.175902 
L 299.826446 255.360447 
L 304.950413 252.544993 
L 310.07438 249.729538 
L 315.198347 246.914084 
L 320.322314 244.098629 
L 325.446281 241.283175 
L 330.570248 238.46772 
L 335.694215 235.652266 
L 340.818182 232.836811 
L 345.942149 230.021357 
L 351.066116 227.205902 
L 356.190083 224.390448 
L 361.31405 221.574993 
L 366.438017 218.759539 
L 371.561983 215.944085 
L 376.68595 213.12863 
L 381.809917 210.313176 
L 386.933884 207.497721 
L 392.057851 204.682267 
L 397.181818 201.866812 
L 402.305785 199.051358 
L 407.429752 196.235903 
L 412.553719 193.420449 
L 417.677686 190.604994 
L 422.801653 187.78954 
L 427.92562 184.974085 
L 433.049587 182.158631 
L 438.173554 179.343176 
L 443.297521 176.527722 
L 448.421488 173.712268 
L 453.545455 170.896813 
L 458.669421 168.081359 
L 463.793388 165.265904 
L 468.917355 162.45045 
L 474.041322 159.634995 
L 479.165289 156.819541 
L 484.289256 154.004086 
L 489.413223 151.188632 
L 494.53719 148.373177 
L 499.661157 145.557723 
L 504.785124 142.742268 
L 509.909091 139.926814 
L 515.033058 137.111359 
L 520.157025 134.295905 
L 525.280992 131.48045 
L 530.404959 128.664996 
L 535.528926 125.849542 
L 540.652893 123.034087 
L 545.77686 120.218633 
L 550.900826 117.403178 
L 556.024793 114.587724 
L 561.14876 111.772269 
L 566.272727 108.956815 
L 571.396694 106.14136 
L 576.520661 103.325906 
L 581.644628 100.510451 
L 586.768595 97.694997 
L 591.892562 94.879542 
L 597.016529 92.064088 
L 602.140496 89.248633 
L 607.264463 86.433179 
L 612.38843 83.617725 
L 617.512397 80.80227 
L 622.636364 77.986816 
" clip-path="url(#pc7bcbd5e98)" style="fill: none; stroke: #800080; stroke-width: 2.25; stroke-linecap: square"/>
   </g>
   <g id="patch_3">
    <path d="M 90 384.48 
L 90 51.84 
" style="fill: none; stroke: #000000; stroke-width: 0.8; stroke-linejoin: miter; stroke-linecap: square"/>
   </g>
   <g id="patch_4">
    <path d="M 90 384.48 
L 648 384.48 
" style="fill: none; stroke: #000000; stroke-width: 0.8; stroke-linejoin: miter; stroke-linecap: square"/>
   </g>
   <g id="text_14">
    <!-- Construction Cost and Price of Houses Sold -->
    <g transform="translate(196.23125 45.84) scale(0.16 -0.16)">
     <defs>
      <path id="DejaVuSans-61" d="M 2194 1759 
Q 1497 1759 1228 1600 
Q 959 1441 959 1056 
Q 959 750 1161 570 
Q 1363 391 1709 391 
Q 2188 391 2477 730 
Q 2766 1069 2766 1631 
L 2766 1759 
L 2194 1759 
z
M 3341 1997 
L 3341 0 
L 2766 0 
L 2766 531 
Q 2569 213 2275 61 
Q 1981 -91 1556 -91 
Q 1019 -91 701 211 
Q 384 513 384 1019 
Q 384 1609 779 1909 
Q 1175 2209 1959 2209 
L 2766 2209 
L 2766 2266 
Q 2766 2663 2505 2880 
Q 2244 3097 1772 3097 
Q 1472 3097 1187 3025 
Q 903 2953 641 2809 
L 641 3341 
Q 956 3463 1253 3523 
Q 1550 3584 1831 3584 
Q 2591 3584 2966 3190 
Q 3341 2797 3341 1997 
z
" transform="scale(0.015625)"/>
     </defs>
     <use xlink:href="#DejaVuSans-43"/>
     <use xlink:href="#DejaVuSans-6f" x="69.824219"/>
     <use xlink:href="#DejaVuSans-6e" x="131.005859"/>
     <use xlink:href="#DejaVuSans-73" x="194.384766"/>
     <use xlink:href="#DejaVuSans-74" x="246.484375"/>
     <use xlink:href="#DejaVuSans-72" x="285.693359"/>
     <use xlink:href="#DejaVuSans-75" x="326.806641"/>
     <use xlink:href="#DejaVuSans-63" x="390.185547"/>
     <use xlink:href="#DejaVuSans-74" x="445.166016"/>
     <use xlink:href="#DejaVuSans-69" x="484.375"/>
     <use xlink:href="#DejaVuSans-6f" x="512.158203"/>
     <use xlink:href="#DejaVuSans-6e" x="573.339844"/>
     <use xlink:href="#DejaVuSans-20" x="636.71875"/>
     <use xlink:href="#DejaVuSans-43" x="668.505859"/>
     <use xlink:href="#DejaVuSans-6f" x="738.330078"/>
     <use xlink:href="#DejaVuSans-73" x="799.511719"/>
     <use xlink:href="#DejaVuSans-74" x="851.611328"/>
     <use xlink:href="#DejaVuSans-20" x="890.820312"/>
     <use xlink:href="#DejaVuSans-61" x="922.607422"/>
     <use xlink:href="#DejaVuSans-6e" x="983.886719"/>
     <use xlink:href="#DejaVuSans-64" x="1047.265625"/>
     <use xlink:href="#DejaVuSans-20" x="1110.742188"/>
     <use xlink:href="#DejaVuSans-50" x="1142.529297"/>
     <use xlink:href="#DejaVuSans-72" x="1201.082031"/>
     <use xlink:href="#DejaVuSans-69" x="1242.195312"/>
     <use xlink:href="#DejaVuSans-63" x="1269.978516"/>
     <use xlink:href="#DejaVuSans-65" x="1324.958984"/>
     <use xlink:href="#DejaVuSans-20" x="1386.482422"/>
     <use xlink:href="#DejaVuSans-6f" x="1418.269531"/>
     <use xlink:href="#DejaVuSans-66" x="1479.451172"/>
     <use xlink:href="#DejaVuSans-20" x="1514.65625"/>
     <use xlink:href="#DejaVuSans-48" x="1546.443359"/>
     <use xlink:href="#DejaVuSans-6f" x="1621.638672"/>
     <use xlink:href="#DejaVuSans-75" x="1682.820312"/>
     <use xlink:href="#DejaVuSans-73" x="1746.199219"/>
     <use xlink:href="#DejaVuSans-65" x="1798.298828"/>
     <use xlink:href="#DejaVuSans-73" x="1859.822266"/>
     <use xlink:href="#DejaVuSans-20" x="1911.921875"/>
     <use xlink:href="#DejaVuSans-53" x="1943.708984"/>
     <use xlink:href="#DejaVuSans-6f" x="2007.185547"/>
     <use xlink:href="#DejaVuSans-6c" x="2068.367188"/>
     <use xlink:href="#DejaVuSans-64" x="2096.150391"/>
    </g>
   </g>
  </g>
 </g>
 <defs>
  <clipPath id="pc7bcbd5e98">
   <rect x="90" y="51.84" width="558" height="332.64"/>
  </clipPath>
 </defs>
</svg>
